<?xml version="1.0" encoding="utf-8"?>
<!-- Generator: Adobe Illustrator 22.1.0, SVG Export Plug-In . SVG Version: 6.00 Build 0)  -->
<svg version="1.1" id="Capa_1" xmlns="http://www.w3.org/2000/svg" xmlns:xlink="http://www.w3.org/1999/xlink" x="0px" y="0px"
	 viewBox="0 0 785.3 329.4" style="enable-background:new 0 0 785.3 329.4;" xml:space="preserve">
<style type="text/css">
	.st0{fill:#FFFFFF;}
	.st1{fill:#FFFFFF;stroke:#FFFFFF;stroke-width:0.39;stroke-miterlimit:10;}
</style>
<g>
	<g>
		<g>
			<path class="st0" d="M23.9,184.1c0-1.4,0.2-2.8,0.7-4.1c0.5-1.3,1.1-2.5,1.9-3.4c0.8-1,1.8-1.8,3-2.3c1.2-0.6,2.5-0.8,3.9-0.8
				c2.7,0,4.8,0.5,6.1,1.4l-0.6,2.4h-0.2c-0.6-0.6-1.1-1.1-1.7-1.5c-0.6-0.4-1.1-0.6-1.7-0.8c-0.6-0.2-1.2-0.3-1.8-0.3
				c-1.2,0-2.4,0.4-3.4,1.1c-1.1,0.8-1.9,1.8-2.5,3.2c-0.6,1.4-1,3-1,4.9v0.4c0,1.7,0.2,3.1,0.6,4.3c0.4,1.2,0.9,2.2,1.6,2.9
				c0.7,0.8,1.4,1.3,2.2,1.7c0.8,0.3,1.7,0.5,2.6,0.5c1,0,2-0.2,3-0.6c1-0.4,1.8-1,2.5-1.7l-0.2,1.9c-0.6,0.4-1.2,0.8-1.9,1
				c-0.7,0.3-1.3,0.5-2,0.7c-0.7,0.1-1.3,0.2-1.9,0.2c-1.2,0-2.4-0.3-3.5-0.8c-1.1-0.5-2.1-1.3-3-2.2c-0.9-1-1.5-2.1-2-3.5
				C24.1,187.2,23.9,185.7,23.9,184.1"/>
			<path class="st0" d="M43.1,187.9c0,1.2,0.3,2.4,0.8,3.6c0.5,1.3,1.6,2,3,2.1c1.2,0,2.1-0.5,2.8-1.7c0.7-1.1,1.1-2.7,1.2-4.8
				c0-1.3-0.1-2.4-0.4-3.4c-0.3-1-0.7-1.7-1.3-2.3c-0.6-0.5-1.3-0.8-2.2-0.8c-1.2,0-2.2,0.6-3,2c-0.7,1.3-1.1,2.8-1.1,4.5
				C43.1,187.4,43.1,187.6,43.1,187.9 M40.7,187.7c0-1.6,0.3-2.9,0.8-4.2c0.5-1.2,1.3-2.2,2.3-2.9c1-0.7,2.2-1,3.5-1
				c1.5,0,2.8,0.5,3.7,1.4c0.9,0.9,1.5,2,1.9,3.2c0.3,1.2,0.5,2.2,0.5,3.1c0,0.8-0.1,1.6-0.4,2.5c-0.2,0.8-0.6,1.6-1.1,2.4
				c-0.5,0.7-1.2,1.4-2,1.8c-0.8,0.5-1.8,0.7-2.8,0.7c-0.1,0-0.1,0-0.2,0h-0.2c-1.2,0-2.3-0.3-3.2-0.9c-0.9-0.6-1.6-1.4-2.1-2.5
				C40.9,190.1,40.7,188.9,40.7,187.7"/>
			<path class="st0" d="M56.1,194.3v-14.8c0.3,0.1,0.6,0.2,0.9,0.2c0.3,0,0.7-0.1,1.1-0.2v2.4c0.2-0.4,0.5-0.8,0.9-1.2
				c0.4-0.4,0.8-0.7,1.3-1c0.5-0.3,1-0.4,1.5-0.4c0.8,0,1.4,0.1,1.8,0.2c0.5,0.1,0.9,0.5,1.2,0.9c0.4,0.4,0.7,1.1,1.2,2
				c0.3-0.7,0.6-1.2,1-1.7c0.4-0.5,0.9-0.8,1.4-1c0.5-0.2,1-0.3,1.6-0.3c0.9,0,1.6,0.2,2.3,0.7c0.7,0.4,1.1,1,1.5,1.7
				c0.3,0.7,0.5,1.4,0.5,2.2c0,0.2,0,0.3,0,0.4v10c-0.3-0.1-0.6-0.2-1-0.2c-0.4,0-0.8,0.1-1.2,0.2v-9.8c0-1.1-0.3-1.9-0.9-2.6
				c-0.6-0.6-1.2-1-2-1c-0.5,0-0.9,0.1-1.4,0.4c-0.4,0.3-0.8,0.7-1.1,1.3c-0.3,0.6-0.5,1.3-0.5,2.2v9.3c-0.3-0.1-0.6-0.2-1-0.2
				c-0.4,0-0.7,0.1-1,0.2v-9.8c0-0.7-0.2-1.3-0.4-1.8c-0.3-0.5-0.7-0.9-1.1-1.2c-0.5-0.3-1-0.4-1.4-0.4c-0.8,0-1.4,0.3-2,1
				c-0.6,0.6-0.9,1.6-0.9,2.9v9.3c-0.3-0.1-0.6-0.2-1-0.2C56.9,194.2,56.5,194.2,56.1,194.3"/>
			<path class="st0" d="M78.2,194.3v-14.8c0.4,0.1,0.8,0.2,1.2,0.2c0.4,0,0.7-0.1,1-0.2v14.8c-0.3-0.1-0.7-0.2-1-0.2
				C79,194.2,78.6,194.2,78.2,194.3 M78,174.3c0-0.5,0.1-1,0.4-1.3c0.3-0.3,0.6-0.4,1-0.4c0.4,0,0.7,0.2,1,0.5
				c0.3,0.3,0.4,0.7,0.4,1.2c0,0.5-0.2,1-0.5,1.3c-0.3,0.3-0.6,0.4-1,0.4c-0.4,0-0.7-0.2-1-0.5C78.1,175.3,78,174.8,78,174.3"/>
			<path class="st0" d="M84.2,184.1c0-1.5,0.4-2.7,1.3-3.5c0.9-0.8,1.9-1.2,3.1-1.2c1,0,2,0.3,2.9,0.8l-0.6,2.4h-0.4
				c-0.1-0.4-0.3-0.8-0.5-1.1c-0.2-0.3-0.5-0.5-0.8-0.7c-0.3-0.1-0.6-0.2-1-0.2c-0.5,0-1,0.2-1.4,0.5c-0.4,0.3-0.7,0.8-0.7,1.4
				c0,0.3,0,0.4,0,0.5c0,0.6,0.2,1.1,0.5,1.4c0.3,0.4,0.8,0.7,1.4,0.9c0.6,0.2,1.2,0.5,1.7,0.7c0.9,0.4,1.5,0.9,2,1.6
				c0.4,0.6,0.6,1.3,0.6,2.1s-0.2,1.5-0.6,2.2c-0.4,0.7-1,1.3-1.7,1.8c-0.7,0.4-1.5,0.7-2.3,0.7c-1.8,0-3-0.4-3.6-1.2l0.6-2.2H85
				c0.7,1.5,1.6,2.2,2.7,2.2c0.4,0,0.9-0.1,1.2-0.4c0.4-0.3,0.7-0.6,0.9-1c0.2-0.4,0.4-0.9,0.4-1.3c0-0.5-0.2-1-0.4-1.3
				c-0.2-0.3-0.5-0.6-0.9-0.8c-0.4-0.2-0.8-0.4-1.4-0.5c-0.5-0.2-0.9-0.3-1.2-0.4c-0.7-0.3-1.2-0.7-1.6-1.2
				C84.4,185.9,84.2,185.1,84.2,184.1"/>
			<path class="st0" d="M95.2,194.3v-14.8c0.4,0.1,0.8,0.2,1.2,0.2c0.4,0,0.7-0.1,1-0.2v14.8c-0.3-0.1-0.7-0.2-1-0.2
				C96,194.2,95.6,194.2,95.2,194.3 M95,174.3c0-0.5,0.1-1,0.4-1.3c0.3-0.3,0.6-0.4,1-0.4c0.4,0,0.8,0.2,1,0.5
				c0.3,0.3,0.4,0.7,0.4,1.2c-0.1,0.5-0.2,1-0.5,1.3c-0.3,0.3-0.6,0.4-0.9,0.4c-0.4,0-0.7-0.2-1-0.5C95.1,175.3,95,174.8,95,174.3"
				/>
			<path class="st0" d="M103.9,178.4l3.4-4.3c0.4-0.5,0.8-0.7,1.3-0.7c0.3,0,0.5,0.1,0.7,0.2c0.2,0.2,0.3,0.4,0.3,0.6
				c0,0.4-0.3,0.9-0.9,1.3l-3.8,2.9H103.9z M103.1,187.9c0,1.2,0.3,2.4,0.8,3.6c0.5,1.3,1.6,2,3,2.1c1.2,0,2.1-0.5,2.8-1.7
				c0.7-1.1,1.1-2.7,1.2-4.8c0-1.3-0.1-2.4-0.4-3.4c-0.3-1-0.7-1.7-1.3-2.3c-0.6-0.5-1.3-0.8-2.2-0.8c-1.3,0-2.2,0.6-3,2
				c-0.7,1.3-1.1,2.8-1.1,4.5C103,187.4,103,187.6,103.1,187.9 M100.6,187.7c0-1.6,0.3-2.9,0.8-4.2c0.6-1.2,1.3-2.2,2.4-2.9
				c1-0.7,2.2-1,3.5-1c1.5,0,2.8,0.5,3.7,1.4c0.9,0.9,1.5,2,1.9,3.2c0.4,1.2,0.5,2.2,0.5,3.1c0,0.8-0.1,1.6-0.3,2.5
				c-0.2,0.8-0.6,1.6-1.1,2.4c-0.5,0.7-1.2,1.4-2,1.8c-0.8,0.5-1.8,0.7-2.8,0.7c-0.1,0-0.1,0-0.2,0h-0.2c-1.2,0-2.3-0.3-3.2-0.9
				c-0.9-0.6-1.6-1.4-2.1-2.5C100.9,190.1,100.6,188.9,100.6,187.7"/>
			<path class="st0" d="M116.4,194.3v-14.8c0.3,0.1,0.7,0.2,1.1,0.2c0.4,0,0.8-0.1,1.1-0.2v2.6c0.3-0.4,0.5-0.8,0.7-1
				c0.2-0.2,0.4-0.5,0.7-0.8c0.3-0.3,0.7-0.5,1.2-0.7c0.5-0.2,1-0.3,1.6-0.3c0.7,0,1.4,0.2,2,0.6c0.6,0.4,1.1,1.1,1.5,2
				c0.4,0.9,0.6,2.1,0.6,3.5v8.8c-0.3-0.1-0.6-0.2-1-0.2c-0.3,0-0.7,0.1-1.3,0.2v-8.8c0-1.4-0.3-2.4-0.9-3.2c-0.6-0.7-1.2-1.1-2-1.1
				c-0.5,0-1.1,0.2-1.5,0.5c-0.5,0.4-0.9,0.9-1.2,1.6c-0.3,0.7-0.5,1.6-0.5,2.6v8.3c-0.4-0.1-0.8-0.2-1.1-0.2
				C117.2,194.2,116.8,194.2,116.4,194.3"/>
			<path class="st0" d="M138.3,194.3v-20.9h1.2l12.4,15.9v-15.9c0.2,0.1,0.5,0.2,0.8,0.2c0.3,0,0.6-0.1,0.8-0.2v20.9h-1l-12.5-16.4
				v16.4c-0.2-0.1-0.4-0.2-0.7-0.2C138.9,194.2,138.6,194.2,138.3,194.3"/>
			<path class="st0" d="M164.6,191.2v-4c-1.3,0.1-2.3,0.3-3.1,0.6c-0.8,0.3-1.3,0.6-1.7,1.1c-0.3,0.5-0.5,1.1-0.5,1.7
				c0,0.2,0,0.5,0.1,0.8c0.1,0.4,0.3,0.9,0.8,1.2c0.5,0.4,1,0.6,1.6,0.6C162.8,193.3,163.7,192.6,164.6,191.2 M157.1,191
				c0-0.6,0.1-1.3,0.3-1.8c0.2-0.5,0.5-1,1-1.3c0.5-0.4,1.1-0.7,1.9-0.9l3.3-0.7c0.4-0.1,0.6-0.3,0.8-0.6c0.2-0.3,0.3-0.7,0.3-1.1
				c0-0.5-0.1-1.1-0.4-1.6c-0.3-0.5-0.6-1-1.1-1.4c-0.5-0.4-1-0.6-1.6-0.6c-0.6,0-1.1,0.2-1.5,0.5c-0.5,0.3-1,0.9-1.5,1.6h-0.4v-1.7
				c0.5-0.3,0.9-0.6,1.3-0.9c0.4-0.2,0.8-0.4,1.3-0.6c0.5-0.2,1-0.2,1.6-0.2c1.5,0,2.7,0.4,3.4,1.2c0.7,0.8,1.1,2.1,1.1,3.8v7.6
				c0,0.6,0.2,0.9,0.7,0.9c0.2,0,0.4,0,0.7-0.1v0.7c-0.4,0.4-0.9,0.6-1.5,0.6c-0.5,0-1-0.2-1.4-0.5c-0.4-0.3-0.7-0.8-0.8-1.3
				c-1.3,1.4-2.6,2.1-4,2.1c-1,0-1.8-0.4-2.5-1.1C157.4,192.9,157.1,192.1,157.1,191"/>
			<path class="st0" d="M169.9,187.4c0-1.5,0.2-2.9,0.7-4c0.5-1.1,1.3-2,2.3-2.7c1-0.7,2.3-1,3.8-1c0.8,0,1.5,0.1,2,0.3
				c0.5,0.2,1.1,0.5,1.9,0.9l-0.4,2.1h-0.4c-0.4-0.7-0.9-1.3-1.4-1.6c-0.5-0.3-1.2-0.5-2-0.5c-0.8,0-1.6,0.3-2.2,0.9
				c-0.6,0.6-1.1,1.4-1.4,2.3c-0.3,0.9-0.5,2-0.5,3c0,1.1,0.2,2.1,0.5,3c0.3,0.9,0.8,1.7,1.5,2.3c0.7,0.6,1.5,0.9,2.4,0.9
				c0.8,0,1.4-0.2,2-0.5c0.6-0.3,1.1-0.8,1.7-1.4l0.2,0.2l-0.2,1.4c-0.5,0.5-1.2,0.9-1.9,1.1c-0.7,0.3-1.4,0.4-2.2,0.4
				c-1.1,0-2.1-0.3-3.1-0.8c-1-0.5-1.8-1.4-2.4-2.5C170.2,190.3,169.9,189,169.9,187.4"/>
			<path class="st0" d="M184,194.3v-14.8c0.4,0.1,0.8,0.2,1.2,0.2c0.4,0,0.7-0.1,1-0.2v14.8c-0.3-0.1-0.7-0.2-1-0.2
				C184.8,194.2,184.4,194.2,184,194.3 M183.8,174.3c0-0.5,0.1-1,0.4-1.3c0.3-0.3,0.6-0.4,1-0.4c0.4,0,0.7,0.2,1,0.5
				c0.3,0.3,0.5,0.7,0.5,1.2c-0.1,0.5-0.2,1-0.5,1.3c-0.3,0.3-0.6,0.4-1,0.4c-0.4,0-0.7-0.2-1-0.5
				C184,175.3,183.8,174.8,183.8,174.3"/>
			<path class="st0" d="M191.9,187.9c0,1.2,0.3,2.4,0.8,3.6c0.5,1.3,1.6,2,3,2.1c1.1,0,2.1-0.5,2.8-1.7c0.7-1.1,1.1-2.7,1.2-4.8
				c0-1.3-0.1-2.4-0.4-3.4c-0.3-1-0.7-1.7-1.3-2.3c-0.6-0.5-1.3-0.8-2.1-0.8c-1.3,0-2.3,0.6-3,2c-0.7,1.3-1.1,2.8-1.1,4.6
				C191.9,187.4,191.9,187.6,191.9,187.9 M189.5,187.7c0-1.6,0.3-2.9,0.8-4.2c0.5-1.2,1.3-2.2,2.3-2.9c1-0.7,2.2-1,3.5-1
				c1.5,0,2.8,0.5,3.7,1.4c0.9,0.9,1.5,2,1.9,3.2c0.3,1.2,0.5,2.2,0.5,3.1c0,0.8-0.1,1.6-0.3,2.5c-0.2,0.8-0.6,1.6-1.1,2.4
				c-0.5,0.7-1.2,1.4-2,1.8c-0.8,0.5-1.8,0.7-2.8,0.7c-0.1,0-0.1,0-0.2,0h-0.2c-1.2,0-2.3-0.3-3.2-0.9c-0.9-0.6-1.6-1.4-2.1-2.5
				C189.7,190.1,189.5,188.9,189.5,187.7"/>
			<path class="st0" d="M205.3,194.3v-14.8c0.3,0.1,0.7,0.2,1.1,0.2c0.4,0,0.8-0.1,1.1-0.2v2.6c0.3-0.4,0.5-0.8,0.7-1
				c0.2-0.2,0.4-0.5,0.7-0.8c0.3-0.3,0.7-0.5,1.2-0.7c0.5-0.2,1-0.3,1.6-0.3c0.7,0,1.4,0.2,2,0.6c0.6,0.4,1.1,1.1,1.5,2
				c0.4,0.9,0.5,2.1,0.5,3.5v8.8c-0.3-0.1-0.6-0.2-1-0.2c-0.3,0-0.8,0.1-1.3,0.2v-8.8c0-1.4-0.3-2.4-0.8-3.2
				c-0.6-0.7-1.3-1.1-2.1-1.1c-0.5,0-1,0.2-1.6,0.5c-0.5,0.4-0.9,0.9-1.2,1.6c-0.3,0.7-0.4,1.6-0.4,2.6v8.3
				c-0.4-0.1-0.8-0.2-1.1-0.2C206.1,194.2,205.7,194.2,205.3,194.3"/>
			<path class="st0" d="M226.3,191.2v-4c-1.3,0.1-2.3,0.3-3.1,0.6c-0.8,0.3-1.3,0.6-1.7,1.1c-0.4,0.5-0.5,1.1-0.5,1.7
				c0,0.2,0,0.5,0.1,0.8c0.1,0.4,0.3,0.9,0.8,1.2c0.4,0.4,1,0.6,1.5,0.6C224.5,193.3,225.5,192.6,226.3,191.2 M218.8,191
				c0-0.6,0.1-1.3,0.3-1.8c0.2-0.5,0.6-1,1-1.3c0.5-0.4,1.1-0.7,1.9-0.9l3.2-0.7c0.4-0.1,0.6-0.3,0.8-0.6c0.2-0.3,0.3-0.7,0.3-1.1
				c0-0.5-0.1-1.1-0.4-1.6c-0.2-0.5-0.6-1-1.1-1.4c-0.5-0.4-1-0.6-1.6-0.6c-0.6,0-1.1,0.2-1.5,0.5c-0.5,0.3-1,0.9-1.5,1.6h-0.4v-1.7
				c0.5-0.3,0.9-0.6,1.3-0.9c0.4-0.2,0.8-0.4,1.3-0.6c0.5-0.2,1-0.2,1.6-0.2c1.5,0,2.7,0.4,3.4,1.2c0.7,0.8,1.1,2.1,1.1,3.8v7.6
				c0,0.6,0.2,0.9,0.7,0.9c0.1,0,0.4,0,0.7-0.1v0.7c-0.4,0.4-0.9,0.6-1.5,0.6c-0.5,0-1-0.2-1.4-0.5c-0.4-0.3-0.7-0.8-0.7-1.3
				c-1.3,1.4-2.6,2.1-4,2.1c-1,0-1.8-0.4-2.5-1.1C219.2,192.9,218.8,192.1,218.8,191"/>
			<path class="st0" d="M233,194.3V171c0.4,0.1,0.8,0.2,1.1,0.2c0.3,0,0.7-0.1,1.1-0.2v23.3c-0.3-0.1-0.7-0.2-1-0.2
				C233.8,194.2,233.4,194.2,233,194.3"/>
			<path class="st0" d="M45.4,213.9c0,2.1,0.3,3.5,1.1,4.4c0.7,0.8,1.4,1.3,2.2,1.3c0.1,0,0.1,0,0.3,0c0.6,0,1.2-0.2,1.8-0.7
				c0.5-0.5,1-1.2,1.3-2.1c0.3-0.9,0.5-2,0.5-3.2c0-1.6-0.2-3-0.7-4.3c-0.5-1.3-1.4-1.9-2.7-1.9c0,0-0.1,0-0.1,0c0,0-0.1,0-0.1,0
				c-1.4,0.1-2.3,0.8-2.8,2.1C45.6,210.7,45.4,212.2,45.4,213.9 M42.9,214.3c0-1.3,0.1-2.5,0.4-3.5c0.3-1,0.6-1.9,1.1-2.6
				c0.5-0.7,1.1-1.3,1.8-1.6c0.7-0.4,1.5-0.5,2.4-0.5c0.6,0,1.2,0.1,1.8,0.4c0.6,0.3,1.1,0.6,1.5,1c0.4,0.4,0.6,0.8,0.6,1.2v-10.7
				c0.4,0.1,0.8,0.2,1.1,0.2c0.3,0,0.7-0.1,1.1-0.2v22.9c-0.3-0.1-0.7-0.2-1-0.2c-0.4,0-0.8,0.1-1.2,0.2v-2.6c-0.6,1-1.3,1.7-2,2.2
				c-0.7,0.5-1.5,0.7-2.2,0.7c-0.9,0-1.8-0.3-2.6-0.9c-0.8-0.6-1.5-1.4-2-2.4C43.2,216.7,42.9,215.6,42.9,214.3"/>
			<path class="st0" d="M66.4,212.4c0-1.4-0.2-2.6-0.7-3.6c-0.5-0.9-1.3-1.4-2.5-1.4c-0.7,0-1.3,0.2-1.8,0.8c-0.5,0.5-0.9,1.2-1.2,2
				c-0.3,0.8-0.4,1.6-0.4,2.3H66.4z M57.3,214.1c0-1.7,0.3-3.1,0.8-4.3c0.5-1.2,1.2-2.1,2.1-2.7c0.9-0.6,1.9-0.9,3-0.9
				c1.3,0,2.3,0.3,3.1,1c0.8,0.7,1.4,1.5,1.7,2.5c0.4,1,0.5,1.9,0.5,2.8c0,0.4,0,0.8-0.1,1h-8.7c0,1.3,0.1,2.3,0.4,3.2
				c0.3,0.9,0.8,1.6,1.4,2.1c0.7,0.5,1.5,0.7,2.6,0.7c0.7,0,1.4-0.2,2.1-0.5c0.7-0.3,1.2-0.8,1.6-1.4l0.2,1.6
				c-0.7,0.5-1.1,0.9-1.4,1.1c-0.3,0.2-0.7,0.4-1.3,0.6c-0.5,0.2-1.2,0.3-1.9,0.3c-1.3-0.1-2.4-0.4-3.4-1.1c-0.9-0.7-1.6-1.5-2-2.6
				C57.6,216.5,57.4,215.3,57.3,214.1"/>
			<path class="st0" d="M82,211h5.3l-2.6-7.4L82,211z M76.7,220.8l8.1-21.2h0.6l7.9,21.2c-0.1,0-0.2,0-0.4,0c-0.2,0-0.4,0-0.7,0
				c-0.3-0.1-0.5-0.1-0.6-0.1c-0.4,0-0.7,0.1-1,0.1l-2.8-8.3h-6.3l-2.6,8.3c-0.2-0.1-0.4-0.1-0.7-0.1c-0.1,0-0.3,0-0.5,0.1
				c-0.2,0-0.4,0-0.5,0C76.9,220.8,76.8,220.8,76.7,220.8"/>
			<path class="st0" d="M94.8,213.9c0-1.5,0.2-2.9,0.7-4c0.5-1.2,1.3-2,2.3-2.7c1-0.6,2.3-0.9,3.8-0.9c0.8,0,1.5,0.1,2,0.3
				c0.5,0.2,1.1,0.5,1.9,0.9l-0.4,2.1h-0.4c-0.4-0.7-0.9-1.3-1.4-1.6c-0.5-0.4-1.2-0.5-2-0.5c-0.9,0-1.6,0.3-2.2,0.9
				c-0.6,0.6-1.1,1.3-1.4,2.3c-0.3,1-0.5,2-0.5,3c0,1.1,0.2,2.1,0.5,3c0.3,0.9,0.8,1.7,1.5,2.3c0.7,0.6,1.5,0.9,2.5,0.9
				c0.8,0,1.4-0.1,2-0.5c0.5-0.3,1.1-0.8,1.6-1.4l0.2,0.2l-0.2,1.4c-0.5,0.5-1.2,0.9-1.9,1.1c-0.7,0.3-1.4,0.4-2.2,0.4
				c-1.1,0-2.1-0.3-3.1-0.8c-1-0.6-1.8-1.4-2.4-2.5C95,216.7,94.8,215.4,94.8,213.9"/>
			<path class="st0" d="M108.7,220.8v-14.5c0.3,0.1,0.6,0.2,1,0.2c0.4,0,0.7,0,1-0.2v2.9c0.3-0.6,0.6-1.1,0.9-1.6
				c0.4-0.5,0.8-0.8,1.2-1.1c0.5-0.3,1-0.4,1.5-0.4c0.1,0,0.2,0,0.4,0l-0.2,2.8c-0.5-0.3-1-0.5-1.4-0.5c-0.5,0-1,0.2-1.3,0.6
				c-0.4,0.4-0.6,0.9-0.8,1.5c-0.2,0.6-0.3,1.2-0.3,1.7v8.6c-0.3-0.1-0.6-0.2-1-0.2C109.4,220.6,109,220.6,108.7,220.8"/>
			<path class="st0" d="M125.1,212.4c0-1.4-0.2-2.6-0.7-3.6c-0.5-0.9-1.3-1.4-2.5-1.4c-0.7,0-1.3,0.2-1.8,0.8
				c-0.5,0.5-0.9,1.2-1.2,2c-0.3,0.8-0.4,1.6-0.4,2.3H125.1z M116,214.1c0-1.7,0.3-3.1,0.8-4.3c0.5-1.2,1.2-2.1,2.1-2.7
				c0.9-0.6,1.9-0.9,3-0.9c1.3,0,2.3,0.3,3.1,1c0.8,0.7,1.4,1.5,1.7,2.5c0.3,1,0.5,1.9,0.5,2.8c0,0.4,0,0.8-0.1,1h-8.7
				c0,1.3,0.1,2.3,0.4,3.2c0.3,0.9,0.8,1.6,1.4,2.1c0.7,0.5,1.5,0.7,2.6,0.7c0.7,0,1.4-0.2,2.1-0.5c0.7-0.3,1.2-0.8,1.6-1.4l0.2,1.6
				c-0.7,0.5-1.1,0.9-1.5,1.1c-0.3,0.2-0.7,0.4-1.3,0.6c-0.5,0.2-1.2,0.3-1.9,0.3c-1.3-0.1-2.5-0.4-3.3-1.1c-0.9-0.7-1.6-1.5-2-2.6
				C116.3,216.5,116.1,215.3,116,214.1"/>
			<path class="st0" d="M131.4,213.9c0,2.1,0.3,3.5,1.1,4.4c0.7,0.8,1.4,1.3,2.2,1.3c0.1,0,0.2,0,0.3,0c0.6,0,1.2-0.2,1.8-0.7
				c0.5-0.5,1-1.2,1.3-2.1c0.3-0.9,0.5-2,0.5-3.2c0-1.6-0.2-3-0.7-4.3c-0.5-1.3-1.4-1.9-2.7-1.9c0,0-0.1,0-0.1,0c0,0-0.1,0-0.1,0
				c-1.4,0.1-2.3,0.8-2.8,2.1C131.6,210.7,131.4,212.2,131.4,213.9 M129,214.3c0-1.3,0.1-2.5,0.4-3.5c0.2-1,0.6-1.9,1.1-2.6
				c0.5-0.7,1.1-1.3,1.8-1.6c0.7-0.4,1.5-0.5,2.4-0.5c0.6,0,1.2,0.1,1.8,0.4c0.6,0.3,1.1,0.6,1.5,1c0.4,0.4,0.6,0.8,0.6,1.2v-10.7
				c0.4,0.1,0.8,0.2,1.1,0.2c0.3,0,0.7-0.1,1.1-0.2v22.9c-0.3-0.1-0.7-0.2-1-0.2c-0.4,0-0.8,0.1-1.2,0.2v-2.6c-0.6,1-1.3,1.7-2,2.2
				c-0.7,0.5-1.5,0.7-2.2,0.7c-0.9,0-1.8-0.3-2.6-0.9c-0.8-0.6-1.5-1.4-2-2.4C129.2,216.7,129,215.6,129,214.3"/>
			<path class="st0" d="M144.8,220.8V206c0.4,0.1,0.8,0.2,1.2,0.2c0.4,0,0.7-0.1,1.1-0.2v14.8c-0.3-0.1-0.6-0.2-1.1-0.2
				C145.6,220.6,145.2,220.7,144.8,220.8 M144.6,200.7c0-0.6,0.1-1,0.4-1.3c0.3-0.3,0.6-0.4,1-0.4c0.4,0,0.7,0.2,1,0.4
				c0.3,0.3,0.4,0.7,0.4,1.2c0,0.5-0.2,1-0.5,1.3c-0.3,0.3-0.6,0.4-1,0.4c-0.4,0-0.7-0.2-1-0.5C144.7,201.7,144.6,201.3,144.6,200.7
				"/>
			<path class="st0" d="M151.2,217.2v-9.8h-1.6c0.1-0.1,0.1-0.3,0.1-0.5c0-0.2-0.1-0.5-0.1-0.7h1.6v-2.8l2-1v3.8h2.8
				c-0.1,0.2-0.2,0.5-0.2,0.6c0,0.2,0.1,0.3,0.2,0.6h-2.8v7.9c0,0.9,0,1.6,0.1,2.3c0.1,0.6,0.2,1.2,0.5,1.7c0.3,0.5,0.7,0.7,1.3,0.7
				c0.4,0,0.8-0.1,1.4-0.4v1c-0.9,0.4-1.7,0.6-2.4,0.6c-0.9,0-1.6-0.4-2.1-1C151.5,219.4,151.2,218.4,151.2,217.2"/>
			<path class="st0" d="M165.4,217.7v-4.1c-1.3,0.2-2.3,0.4-3.1,0.6c-0.8,0.3-1.3,0.7-1.7,1.1c-0.3,0.5-0.5,1-0.5,1.7
				c0,0.2,0,0.5,0.1,0.8c0.1,0.5,0.3,0.9,0.8,1.2c0.5,0.4,1,0.6,1.6,0.6C163.6,219.7,164.6,219,165.4,217.7 M157.9,217.4
				c0-0.7,0.1-1.3,0.3-1.8c0.2-0.5,0.6-1,1-1.3c0.5-0.4,1.1-0.7,1.9-0.9l3.2-0.7c0.4-0.1,0.6-0.3,0.8-0.6c0.2-0.3,0.3-0.7,0.3-1.1
				c0-0.5-0.1-1.1-0.4-1.6c-0.3-0.5-0.6-1-1.1-1.4c-0.5-0.4-1-0.6-1.6-0.6c-0.6,0-1.1,0.2-1.6,0.5c-0.5,0.3-0.9,0.9-1.5,1.6h-0.4
				v-1.7c0.5-0.4,1-0.6,1.3-0.8c0.4-0.2,0.8-0.4,1.3-0.6c0.5-0.2,1-0.2,1.6-0.2c1.5,0,2.7,0.4,3.4,1.2c0.7,0.8,1.1,2.1,1.1,3.8v7.6
				c0,0.5,0.2,0.8,0.7,0.8c0.2,0,0.4,0,0.7-0.1v0.7c-0.4,0.4-0.9,0.6-1.5,0.6c-0.5,0-1-0.2-1.4-0.5c-0.4-0.3-0.7-0.7-0.8-1.3
				c-1.3,1.4-2.6,2.1-4,2.1c-1,0-1.8-0.4-2.5-1.1C158.3,219.4,157.9,218.5,157.9,217.4"/>
			<path class="st0" d="M170.7,213.9c0-1.5,0.2-2.9,0.7-4c0.5-1.2,1.3-2,2.3-2.7c1-0.6,2.3-0.9,3.8-0.9c0.8,0,1.5,0.1,2,0.3
				c0.5,0.2,1.1,0.5,1.9,0.9l-0.4,2.1h-0.4c-0.4-0.7-0.9-1.3-1.4-1.6c-0.5-0.4-1.2-0.5-2-0.5c-0.8,0-1.6,0.3-2.2,0.9
				c-0.6,0.6-1.1,1.3-1.4,2.3c-0.3,1-0.5,2-0.5,3c0,1.1,0.2,2.1,0.5,3c0.3,0.9,0.8,1.7,1.5,2.3c0.7,0.6,1.5,0.9,2.5,0.9
				c0.8,0,1.4-0.1,2-0.5c0.5-0.3,1.1-0.8,1.7-1.4l0.2,0.2l-0.2,1.4c-0.5,0.5-1.2,0.9-1.9,1.1c-0.7,0.3-1.5,0.4-2.2,0.4
				c-1.1,0-2.1-0.3-3.1-0.8c-1-0.6-1.8-1.4-2.4-2.5C171,216.7,170.7,215.4,170.7,213.9"/>
			<path class="st0" d="M184.8,220.8V206c0.4,0.1,0.8,0.2,1.2,0.2c0.4,0,0.7-0.1,1-0.2v14.8c-0.3-0.1-0.6-0.2-1-0.2
				C185.6,220.6,185.2,220.7,184.8,220.8 M184.6,200.7c0-0.6,0.1-1,0.4-1.3c0.3-0.3,0.6-0.4,1-0.4c0.4,0,0.7,0.2,1,0.4
				c0.3,0.3,0.5,0.7,0.5,1.2c-0.1,0.5-0.2,1-0.5,1.3c-0.3,0.3-0.6,0.4-1,0.4c-0.4,0-0.7-0.2-1-0.5
				C184.8,201.7,184.6,201.3,184.6,200.7"/>
			<path class="st0" d="M193.5,204.8l3.4-4.3c0.4-0.5,0.8-0.7,1.3-0.7c0.3,0,0.5,0.1,0.7,0.2c0.2,0.1,0.3,0.3,0.3,0.6
				c0,0.4-0.3,0.9-0.9,1.3l-3.8,2.8H193.5z M192.7,214.3c0,1.2,0.3,2.4,0.8,3.7c0.6,1.3,1.6,2,3,2.1c1.1,0,2.1-0.6,2.8-1.7
				c0.7-1.1,1.2-2.7,1.2-4.8c0-1.3-0.1-2.4-0.4-3.3c-0.3-1-0.7-1.7-1.3-2.3c-0.6-0.5-1.3-0.8-2.2-0.8c-1.2,0-2.2,0.7-3,2
				c-0.7,1.3-1.1,2.8-1.1,4.6C192.7,213.8,192.7,214.1,192.7,214.3 M190.3,214.1c0-1.6,0.3-3,0.8-4.2s1.3-2.2,2.4-2.9
				c1-0.7,2.2-1,3.5-1c1.5,0,2.7,0.5,3.7,1.4c0.9,0.9,1.5,2,1.9,3.2c0.4,1.2,0.5,2.2,0.5,3.1c0,0.8-0.1,1.7-0.3,2.5
				c-0.2,0.8-0.6,1.6-1.1,2.4c-0.5,0.7-1.2,1.4-2,1.8c-0.8,0.5-1.8,0.7-2.8,0.7h-0.2c-0.1,0-0.1,0-0.2,0c-1.2,0-2.3-0.3-3.2-0.9
				c-0.9-0.6-1.6-1.4-2.1-2.5C190.5,216.5,190.3,215.4,190.3,214.1"/>
			<path class="st0" d="M206.1,220.8V206c0.3,0.1,0.7,0.2,1.1,0.2c0.4,0,0.8-0.1,1.1-0.2v2.6c0.3-0.5,0.5-0.8,0.7-1
				c0.2-0.2,0.4-0.5,0.7-0.8c0.3-0.3,0.7-0.5,1.2-0.7c0.5-0.2,1-0.3,1.6-0.3c0.7,0,1.4,0.2,2,0.6c0.6,0.4,1.1,1.1,1.5,2
				c0.4,0.9,0.6,2.1,0.6,3.5v8.8c-0.3-0.1-0.6-0.2-1-0.2c-0.3,0-0.7,0.1-1.2,0.2v-8.8c0-1.4-0.3-2.4-0.9-3.2
				c-0.6-0.8-1.3-1.1-2.1-1.1c-0.5,0-1,0.2-1.6,0.5c-0.5,0.4-0.9,0.9-1.2,1.6c-0.3,0.7-0.4,1.6-0.4,2.6v8.3
				c-0.4-0.1-0.8-0.2-1.1-0.2C206.9,220.6,206.5,220.6,206.1,220.8"/>
			<path class="st0" d="M76.8,236.4c0-1.2,0.2-2.2,0.6-3.3c0.4-1,1-2,1.7-2.7c0.7-0.8,1.6-1.4,2.7-1.9c1.1-0.5,2.2-0.7,3.5-0.7
				c2.5,0,4.3,0.4,5.4,1.1l-0.5,1.9H90c-0.5-0.5-1-0.9-1.5-1.2c-0.5-0.3-1-0.5-1.6-0.7c-0.5-0.1-1.1-0.2-1.6-0.2
				c-1.1,0-2.1,0.3-3.1,0.9c-1,0.6-1.7,1.4-2.3,2.6c-0.6,1.1-0.9,2.4-0.9,3.9v0.3c0,1.3,0.2,2.5,0.6,3.4c0.4,1,0.8,1.7,1.4,2.4
				c0.6,0.6,1.2,1.1,2,1.3c0.7,0.3,1.5,0.4,2.3,0.4c0.9,0,1.8-0.2,2.7-0.5c0.9-0.3,1.6-0.8,2.3-1.3l-0.2,1.5
				c-0.5,0.3-1.1,0.6-1.7,0.9c-0.6,0.2-1.2,0.4-1.8,0.5c-0.6,0.1-1.1,0.2-1.7,0.2c-1.1,0-2.2-0.2-3.1-0.6c-1-0.4-1.9-1-2.7-1.8
				c-0.8-0.8-1.4-1.7-1.8-2.8C77,238.9,76.8,237.7,76.8,236.4"/>
			<path class="st0" d="M93.5,244.6v-16.8h1.1l11,12.8v-12.8c0.2,0.1,0.4,0.1,0.7,0.1c0.3,0,0.5-0.1,0.7-0.1v16.8h-0.9l-11.2-13.2
				v13.2c-0.2-0.1-0.4-0.1-0.7-0.1C94,244.5,93.7,244.5,93.5,244.6"/>
			<path class="st0" d="M114.1,236.8h4.7l-2.4-5.9L114.1,236.8z M109.4,244.6l7.2-17h0.5l7.1,17c-0.1,0-0.2,0-0.4,0
				c-0.2,0-0.4,0-0.6-0.1c-0.2,0-0.4,0-0.6,0c-0.3,0-0.7,0-0.9,0.1l-2.5-6.7h-5.6l-2.4,6.7c-0.2-0.1-0.4-0.1-0.6-0.1
				c-0.1,0-0.2,0-0.4,0c-0.2,0-0.3,0.1-0.5,0.1C109.6,244.6,109.4,244.6,109.4,244.6"/>
		</g>
		<rect x="125.5" y="238.1" class="st0" width="5.8" height="1.7"/>
		<g>
			<path class="st0" d="M133.1,236.4c0-1.2,0.2-2.2,0.6-3.3c0.4-1,1-2,1.7-2.7c0.7-0.8,1.6-1.4,2.7-1.9c1.1-0.5,2.2-0.7,3.5-0.7
				c2.5,0,4.3,0.4,5.4,1.1l-0.5,1.9h-0.2c-0.5-0.5-1-0.9-1.5-1.2c-0.5-0.3-1-0.5-1.6-0.7c-0.5-0.1-1.1-0.2-1.6-0.2
				c-1.1,0-2.1,0.3-3.1,0.9c-0.9,0.6-1.7,1.4-2.3,2.6c-0.6,1.1-0.9,2.4-0.9,3.9v0.3c0,1.3,0.2,2.5,0.6,3.4c0.3,1,0.8,1.7,1.4,2.4
				c0.6,0.6,1.3,1.1,2,1.3c0.7,0.3,1.5,0.4,2.3,0.4c0.9,0,1.8-0.2,2.7-0.5c0.9-0.3,1.6-0.8,2.3-1.3l-0.2,1.5
				c-0.5,0.3-1.1,0.6-1.7,0.9c-0.6,0.2-1.2,0.4-1.8,0.5c-0.6,0.1-1.2,0.2-1.7,0.2c-1.1,0-2.1-0.2-3.1-0.6c-1-0.4-1.9-1-2.7-1.8
				c-0.8-0.8-1.4-1.7-1.8-2.8C133.3,238.9,133.1,237.7,133.1,236.4"/>
			<path class="st0" d="M149.2,244.6v-18.5c0.4,0.1,0.7,0.1,1.1,0.1c0.3,0,0.7-0.1,0.9-0.1v8.8c0.2-0.2,0.4-0.5,0.6-0.8
				c0.2-0.3,0.5-0.5,0.8-0.8c0.3-0.2,0.7-0.4,1.1-0.5c0.5-0.1,1-0.2,1.7-0.2c0.6,0,1.2,0.2,1.8,0.6c0.5,0.4,1,0.9,1.2,1.6
				c0.3,0.7,0.4,1.4,0.4,2.2v7.6c-0.4-0.1-0.7-0.1-1-0.1c-0.3,0-0.6,0-1,0.1v-7.5c0-1-0.3-1.8-0.8-2.4c-0.5-0.6-1.1-0.8-1.9-0.8
				c-0.5,0-1,0.2-1.4,0.5c-0.5,0.3-0.9,0.8-1.1,1.4c-0.3,0.6-0.4,1.3-0.4,2.2v6.7c-0.3-0.1-0.6-0.1-0.9-0.1
				C149.9,244.5,149.6,244.5,149.2,244.6"/>
			<path class="st0" d="M162.4,244.6v-11.8c0.4,0.1,0.7,0.1,1.1,0.1c0.3,0,0.7-0.1,0.9-0.1v11.8c-0.3-0.1-0.6-0.2-0.9-0.2
				C163.1,244.5,162.8,244.5,162.4,244.6 M162.2,228.6c0-0.5,0.1-0.8,0.4-1c0.2-0.2,0.5-0.3,0.9-0.3c0.3,0,0.7,0.1,0.9,0.4
				c0.3,0.2,0.4,0.6,0.4,1c-0.1,0.4-0.2,0.7-0.5,1c-0.2,0.2-0.5,0.3-0.8,0.3c-0.3,0-0.6-0.1-0.9-0.4
				C162.4,229.3,162.2,229,162.2,228.6"/>
			<path class="st0" d="M168.9,244.6v-18.7c0.3,0.1,0.7,0.1,1,0.1c0.3,0,0.6-0.1,1-0.1v18.7c-0.3-0.1-0.6-0.1-0.9-0.1
				S169.3,244.5,168.9,244.6"/>
			<path class="st0" d="M182,237.9c0-1.1-0.2-2.1-0.6-2.9c-0.4-0.8-1.2-1.2-2.3-1.2c-0.6,0-1.2,0.2-1.6,0.6
				c-0.5,0.4-0.8,0.9-1.1,1.5c-0.2,0.6-0.4,1.2-0.4,1.8H182z M173.8,239.3c0-1.3,0.2-2.5,0.7-3.5c0.4-0.9,1.1-1.7,1.8-2.1
				c0.8-0.5,1.7-0.7,2.7-0.7c1.2,0,2.1,0.3,2.8,0.8c0.7,0.6,1.2,1.2,1.5,2c0.3,0.8,0.5,1.5,0.5,2.3c0,0.3,0,0.6-0.1,0.8H176
				c0,1,0.1,1.9,0.4,2.6c0.3,0.7,0.7,1.2,1.3,1.6c0.6,0.4,1.4,0.6,2.4,0.6c0.6,0,1.3-0.1,1.8-0.4c0.6-0.3,1.1-0.6,1.4-1.1l0.2,1.3
				c-0.6,0.4-1,0.7-1.3,0.9c-0.3,0.2-0.7,0.3-1.1,0.5c-0.5,0.1-1.1,0.2-1.7,0.2c-1.2-0.1-2.2-0.3-3-0.9c-0.8-0.5-1.4-1.2-1.8-2.1
				C174.1,241.2,173.9,240.3,173.8,239.3"/>
		</g>
		<polygon class="st0" points="141.1,83.8 164.2,135.4 148.2,147.1 128.4,102.6 103,161.6 102,162.6 99.9,163.4 81.9,163.4 
			81.4,163.1 115.7,83.3 116.7,82.3 118,82.3 140.1,82.3 140.5,82.8 		"/>
		<polygon class="st0" points="148.3,147.5 127.9,163.9 154.9,163.8 		"/>
		<polygon class="st0" points="164.4,135.7 205.1,102.3 178.4,163.6 178,163.6 177.1,163.6 176.5,163 		"/>
		<g>
			<path class="st0" d="M31.6,25.9v24.6c0,8.3,3.4,12.1,8.6,12.1c5.6,0,8.9-3.8,8.9-12.1V25.9h7.7V50c0,13-6.7,18.8-16.9,18.8
				c-9.8,0-16.1-5.5-16.1-18.7V25.9H31.6z"/>
			<path class="st0" d="M65.7,68.1V25.9h8.8L85.3,44c2.8,4.7,5.3,9.6,7.2,14.2h0.1C92.2,52.5,92,47.1,92,40.6V25.9h7.1v42.2h-8
				l-11-18.5c-2.7-4.6-5.5-9.8-7.6-14.6L72.4,35c0.3,5.5,0.4,11,0.4,18v15.1H65.7z"/>
		</g>
		<rect x="108" y="25.9" class="st0" width="7.7" height="42.2"/>
		<g>
			<path class="st0" d="M134.2,68.1l-13.7-42.2h8.4l5.8,19.2c1.6,5.3,3,10.3,4.1,15.4h0.1c1.1-5,2.6-10.2,4.3-15.3l6.2-19.3h8.2
				L143,68.1H134.2z"/>
		</g>
		<polygon class="st0" points="162.2,25.9 162.2,68.1 187.7,68.1 187.7,61.8 169.9,61.8 169.9,49.4 185.8,49.4 185.8,43.1 
			169.9,43.1 169.9,32.2 186.7,32.2 186.7,25.9 		"/>
		<g>
			<path class="st0" d="M202.1,45.1h4.6c5.2,0,8.4-2.8,8.4-7c0-4.6-3.2-6.8-8.3-6.8c-2.4,0-4,0.2-4.8,0.4V45.1z M194.4,26.4
				c2.9-0.5,7.2-0.9,11.7-0.9c6.1,0,10.2,1,13,3.4c2.3,1.9,3.6,4.9,3.6,8.5c0,5.5-3.7,9.1-7.7,10.6v0.2c3,1.1,4.8,4.1,5.9,8.1
				c1.3,5.3,2.4,10.1,3.3,11.8h-7.9c-0.6-1.3-1.6-4.7-2.8-10c-1.2-5.5-3.2-7.3-7.6-7.4h-3.9v17.4h-7.6V26.4z"/>
			<path class="st0" d="M229.9,59.7c2.5,1.4,6.3,2.7,10.2,2.7c5,0,7.7-2.3,7.7-5.8c0-3.2-2.1-5.1-7.5-7c-7-2.5-11.4-6.2-11.4-12.3
				c0-6.9,5.7-12.2,14.9-12.2c4.6,0,8,1,10.2,2.1l-1.9,6.2c-1.5-0.8-4.5-2-8.4-2c-4.9,0-7,2.6-7,5.1c0,3.3,2.4,4.8,8.1,7
				c7.3,2.8,10.9,6.5,10.9,12.5c0,6.8-5.1,12.7-16,12.7c-4.4,0-9.1-1.3-11.4-2.6L229.9,59.7z"/>
		</g>
		<rect x="262.6" y="25.9" class="st0" width="7.7" height="42.2"/>
		<g>
			<path class="st0" d="M286.8,62.2c1.1,0.2,2.7,0.2,4.3,0.2c10,0.1,16-5.4,16-16.2c0.1-9.3-5.3-14.7-15-14.7
				c-2.5,0-4.2,0.2-5.3,0.4V62.2z M279.1,26.4c3.4-0.6,7.7-0.9,12.3-0.9c7.9,0,13.3,1.6,17.2,4.9c4.1,3.3,6.6,8.3,6.6,15.5
				c0,7.5-2.6,13.2-6.6,16.8c-4.2,3.8-10.9,5.8-19.1,5.8c-4.5,0-7.9-0.3-10.4-0.6V26.4z"/>
			<path class="st0" d="M341.5,50.3l-3.3-10.4c-0.8-2.6-1.5-5.5-2.1-7.9h-0.1c-0.6,2.4-1.2,5.4-2,7.9l-3.3,10.4H341.5z M329.4,56.1
				l-3.6,12h-7.9l13.5-42.2h9.8l13.7,42.2h-8.3l-3.8-12H329.4z"/>
			<path class="st0" d="M368.5,62.2c1.1,0.2,2.7,0.2,4.3,0.2c10,0.1,16-5.4,16-16.2c0.1-9.3-5.3-14.7-15-14.7
				c-2.4,0-4.2,0.2-5.3,0.4V62.2z M360.8,26.4c3.4-0.6,7.7-0.9,12.3-0.9c7.9,0,13.4,1.6,17.2,4.9c4.1,3.3,6.6,8.3,6.6,15.5
				c0,7.5-2.6,13.2-6.6,16.8c-4.2,3.8-10.9,5.8-19.1,5.8c-4.5,0-7.9-0.3-10.4-0.6V26.4z"/>
			<path class="st0" d="M437.1,50.3l-3.3-10.4c-0.8-2.6-1.5-5.5-2.1-7.9h-0.1c-0.6,2.4-1.2,5.4-2,7.9l-3.3,10.4H437.1z M425,56.1
				l-3.6,12h-7.9L427,25.9h9.8l13.7,42.2h-8.3l-3.8-12H425z"/>
			<path class="st0" d="M485.3,66.8c-1.8,0.9-5.8,1.9-10.9,1.9c-13.4,0-21.6-8.4-21.6-21.2c0-13.9,9.6-22.3,22.6-22.3
				c5.1,0,8.7,1.1,10.3,1.9l-1.7,6.1c-2-0.9-4.8-1.6-8.3-1.6c-8.6,0-14.8,5.4-14.8,15.5c0,9.3,5.4,15.2,14.7,15.2
				c3.1,0,6.4-0.6,8.4-1.6L485.3,66.8z"/>
			<path class="st0" d="M499.6,45.1h4.6c5.2,0,8.5-2.8,8.5-7c0-4.6-3.2-6.8-8.3-6.8c-2.4,0-4,0.2-4.8,0.4V45.1z M491.9,26.4
				c2.9-0.5,7.2-0.9,11.7-0.9c6.1,0,10.2,1,13,3.4c2.3,1.9,3.6,4.9,3.6,8.5c0,5.5-3.7,9.1-7.6,10.6v0.2c3,1.1,4.8,4.1,5.9,8.1
				c1.3,5.3,2.4,10.1,3.3,11.8h-7.9c-0.6-1.3-1.6-4.7-2.8-10c-1.2-5.5-3.2-7.3-7.6-7.4h-3.9v17.4h-7.7V26.4z"/>
		</g>
		<polygon class="st0" points="527.6,25.9 527.6,68.1 553,68.1 553,61.8 535.3,61.8 535.3,49.4 551.2,49.4 551.2,43.1 535.3,43.1 
			535.3,32.2 552.1,32.2 552.1,25.9 		"/>
		<g>
			<path class="st0" d="M567.5,62.2c1.1,0.2,2.7,0.2,4.3,0.2c10,0.1,16-5.4,16-16.2c0.1-9.3-5.3-14.7-15-14.7
				c-2.4,0-4.2,0.2-5.3,0.4V62.2z M559.8,26.4c3.4-0.6,7.7-0.9,12.3-0.9c7.9,0,13.4,1.6,17.2,4.9c4.1,3.3,6.6,8.3,6.6,15.5
				c0,7.5-2.6,13.2-6.6,16.8c-4.2,3.8-10.9,5.8-19.1,5.8c-4.5,0-7.9-0.3-10.4-0.6V26.4z"/>
		</g>
		<rect x="602.6" y="25.9" class="st0" width="7.7" height="42.2"/>
		<polygon class="st0" points="615.2,25.9 615.2,32.3 627.2,32.3 627.2,68.1 634.9,68.1 634.9,32.3 647.1,32.3 647.1,25.9 		"/>
		<g>
			<path class="st0" d="M668,50.3l-3.3-10.4c-0.8-2.6-1.5-5.5-2.1-7.9h-0.1c-0.6,2.4-1.2,5.4-2,7.9l-3.3,10.4H668z M655.9,56.1
				l-3.6,12h-8l13.5-42.2h9.8l13.7,42.2h-8.3l-3.8-12H655.9z"/>
			<path class="st0" d="M695,62.2c1,0.2,2.7,0.2,4.3,0.2c10,0.1,16-5.4,16-16.2c0.1-9.3-5.3-14.7-15-14.7c-2.4,0-4.2,0.2-5.3,0.4
				V62.2z M687.3,26.4c3.4-0.6,7.7-0.9,12.3-0.9c7.9,0,13.3,1.6,17.2,4.9c4.1,3.3,6.6,8.3,6.6,15.5c0,7.5-2.6,13.2-6.6,16.8
				c-4.2,3.8-10.9,5.8-19.1,5.8c-4.5,0-7.9-0.3-10.4-0.6V26.4z"/>
			<path class="st0" d="M749.7,50.3l-3.3-10.4c-0.8-2.6-1.5-5.5-2.1-7.9h-0.1c-0.6,2.4-1.2,5.4-2,7.9l-3.3,10.4H749.7z M737.6,56.1
				l-3.6,12h-8l13.5-42.2h9.8l13.7,42.2h-8.3l-3.8-12H737.6z"/>
			<path class="st0" d="M359.2,134.2c-1.7,0.7-5.1,1.6-9.1,1.6c-4.4,0-8.1-1.1-11-3.9c-2.5-2.4-4.1-6.4-4.1-11
				c0-8.8,6.1-15.3,16-15.3c3.4,0,6.1,0.8,7.4,1.4l-1,3.1c-1.6-0.8-3.6-1.3-6.5-1.3c-7.2,0-11.9,4.5-11.9,11.9
				c0,7.5,4.5,11.9,11.4,11.9c2.5,0,4.2-0.3,5.1-0.8V123h-6V120h9.7V134.2z"/>
			<path class="st0" d="M377.3,122.8c0-2.5-1-6.3-5.3-6.3c-3.9,0-5.6,3.6-5.9,6.3H377.3z M366,125.6c0.1,5.2,3.4,7.3,7.2,7.3
				c2.8,0,4.5-0.5,5.9-1.1l0.7,2.8c-1.4,0.6-3.7,1.4-7.1,1.4c-6.5,0-10.4-4.3-10.4-10.7c0-6.4,3.8-11.4,10-11.4
				c6.9,0,8.7,6.1,8.7,10c0,0.8,0,1.4-0.1,1.8H366z"/>
			<path class="st0" d="M384.1,131.5c1.2,0.7,3.2,1.5,5.1,1.5c2.8,0,4.1-1.4,4.1-3.1c0-1.8-1.1-2.8-3.9-3.9c-3.9-1.4-5.7-3.5-5.7-6
				c0-3.4,2.8-6.2,7.3-6.2c2.1,0,4,0.6,5.2,1.3l-0.9,2.8c-0.8-0.5-2.4-1.2-4.3-1.2c-2.3,0-3.5,1.3-3.5,2.9c0,1.8,1.2,2.5,4,3.6
				c3.6,1.4,5.6,3.2,5.6,6.4c0,3.8-2.9,6.4-7.9,6.4c-2.3,0-4.5-0.6-6-1.5L384.1,131.5z"/>
			<path class="st0" d="M405.4,109.2v5.1h5.5v2.9h-5.5v11.4c0,2.6,0.7,4.1,2.9,4.1c1.1,0,1.7-0.1,2.2-0.3l0.2,2.9
				c-0.8,0.3-1.9,0.5-3.4,0.5c-1.8,0-3.2-0.6-4.2-1.6c-1-1.2-1.5-3.1-1.5-5.6v-11.5h-3.3v-2.9h3.3v-3.9L405.4,109.2z"/>
			<path class="st0" d="M414.1,114.3h3.9v21.2h-3.9V114.3z M415.9,110.7c-1.4,0-2.3-1.1-2.3-2.4c0-1.4,1-2.4,2.4-2.4
				c1.4,0,2.4,1.1,2.4,2.4C418.4,109.6,417.5,110.7,415.9,110.7L415.9,110.7z"/>
			<path class="st0" d="M437.7,105.1l-5.3,6.3h-2.7l3.9-6.3H437.7z M432,133.1c3.7,0,6.4-3.5,6.4-8.3c0-3.6-1.8-8.1-6.4-8.1
				c-4.5,0-6.5,4.2-6.5,8.2C425.6,129.6,428.2,133.1,432,133.1L432,133.1z M431.8,136c-5.7,0-10.2-4.2-10.2-10.9
				c0-7.1,4.7-11.3,10.5-11.3c6.1,0,10.2,4.4,10.2,10.9C442.3,132.5,436.9,136,431.8,136L431.8,136z"/>
			<path class="st0" d="M446,120c0-2.2-0.1-4-0.2-5.7h3.4l0.2,3.5h0.1c1.1-2,3.5-3.9,7-3.9c2.9,0,7.5,1.8,7.5,9v12.7h-3.9v-12.2
				c0-3.4-1.3-6.3-4.9-6.3c-2.5,0-4.5,1.8-5.2,3.9c-0.2,0.5-0.2,1.2-0.2,1.8v12.8H446V120z"/>
		</g>
		<rect x="477.3" y="106" class="st0" width="3.9" height="29.5"/>
		<g>
			<path class="st0" d="M487,120c0-2.2,0-4-0.2-5.7h3.4l0.2,3.5h0.1c1.1-2,3.5-3.9,7-3.9c2.9,0,7.5,1.8,7.5,9v12.7h-3.8v-12.2
				c0-3.4-1.3-6.3-4.9-6.3c-2.5,0-4.5,1.8-5.2,3.9c-0.2,0.5-0.3,1.2-0.3,1.8v12.8H487V120z"/>
			<path class="st0" d="M509.6,131.5c1.2,0.7,3.2,1.5,5.1,1.5c2.8,0,4.1-1.4,4.1-3.1c0-1.8-1.1-2.8-3.9-3.9c-3.9-1.4-5.6-3.5-5.6-6
				c0-3.4,2.8-6.2,7.3-6.2c2.2,0,4,0.6,5.2,1.3l-0.9,2.8c-0.8-0.5-2.4-1.2-4.3-1.2c-2.3,0-3.5,1.3-3.5,2.9c0,1.8,1.2,2.5,4,3.6
				c3.6,1.4,5.6,3.2,5.6,6.4c0,3.8-2.9,6.4-7.9,6.4c-2.3,0-4.5-0.6-6-1.5L509.6,131.5z"/>
			<path class="st0" d="M530.9,109.2v5.1h5.5v2.9h-5.5v11.4c0,2.6,0.7,4.1,2.9,4.1c1.1,0,1.7-0.1,2.2-0.3l0.2,2.9
				c-0.8,0.3-1.9,0.5-3.4,0.5c-1.8,0-3.2-0.6-4.2-1.6c-1.1-1.2-1.5-3.1-1.5-5.6v-11.5h-3.3v-2.9h3.3v-3.9L530.9,109.2z"/>
			<path class="st0" d="M539.6,114.3h3.8v21.2h-3.8V114.3z M541.4,110.7c-1.4,0-2.3-1.1-2.3-2.4c0-1.4,1-2.4,2.4-2.4
				c1.4,0,2.4,1.1,2.4,2.4C543.9,109.6,543,110.7,541.4,110.7L541.4,110.7z"/>
			<path class="st0" d="M553.3,109.2v5.1h5.5v2.9h-5.5v11.4c0,2.6,0.7,4.1,2.9,4.1c1,0,1.7-0.1,2.2-0.3l0.2,2.9
				c-0.7,0.3-1.9,0.5-3.4,0.5c-1.8,0-3.2-0.6-4.2-1.6c-1.1-1.2-1.5-3.1-1.5-5.6v-11.5h-3.3v-2.9h3.3v-3.9L553.3,109.2z"/>
			<path class="st0" d="M579.7,129.6c0,2.2,0,4.2,0.2,5.8h-3.4l-0.2-3.5h-0.1c-1,1.7-3.2,3.9-7,3.9c-3.3,0-7.3-1.9-7.3-9.3v-12.4
				h3.9V126c0,4,1.3,6.8,4.7,6.8c2.6,0,4.4-1.8,5.1-3.6c0.2-0.5,0.4-1.2,0.4-2v-13h3.8V129.6z"/>
			<path class="st0" d="M600,134.7c-1,0.5-3.2,1.2-6.1,1.2c-6.4,0-10.6-4.3-10.6-10.8c0-6.5,4.5-11.3,11.4-11.3
				c2.3,0,4.3,0.6,5.3,1.1l-0.9,2.9c-0.9-0.5-2.4-1-4.5-1c-4.9,0-7.5,3.6-7.5,8c0,4.9,3.1,7.9,7.4,7.9c2.2,0,3.6-0.5,4.7-1
				L600,134.7z"/>
			<path class="st0" d="M603.4,114.3h3.9v21.2h-3.9V114.3z M605.2,110.7c-1.4,0-2.3-1.1-2.3-2.4c0-1.4,1-2.4,2.4-2.4
				c1.4,0,2.4,1.1,2.4,2.4C607.7,109.6,606.8,110.7,605.2,110.7L605.2,110.7z"/>
			<path class="st0" d="M621.3,133.1c3.7,0,6.4-3.5,6.4-8.3c0-3.6-1.8-8.1-6.3-8.1c-4.5,0-6.5,4.2-6.5,8.2
				C614.9,129.6,617.5,133.1,621.3,133.1L621.3,133.1z M621.1,136c-5.7,0-10.2-4.2-10.2-10.9c0-7.1,4.7-11.3,10.5-11.3
				c6.1,0,10.2,4.4,10.2,10.9C631.6,132.5,626.2,136,621.1,136L621.1,136z"/>
			<path class="st0" d="M635.3,120c0-2.2,0-4-0.2-5.7h3.4l0.2,3.5h0.1c1.1-2,3.5-3.9,7-3.9c2.9,0,7.5,1.8,7.5,9v12.7h-3.9v-12.2
				c0-3.4-1.3-6.3-4.9-6.3c-2.5,0-4.5,1.8-5.2,3.9c-0.2,0.5-0.3,1.2-0.3,1.8v12.8h-3.8V120z"/>
			<path class="st0" d="M669.6,124.7c-4.2-0.1-9,0.7-9,4.8c0,2.5,1.7,3.7,3.6,3.7c2.8,0,4.6-1.8,5.2-3.6c0.1-0.4,0.2-0.8,0.2-1.2
				V124.7z M673.4,130.4c0,1.8,0.1,3.6,0.3,5.1h-3.5l-0.3-2.7h-0.1c-1.1,1.7-3.5,3.2-6.5,3.2c-4.3,0-6.5-3-6.5-6.1
				c0-5.1,4.6-7.9,12.8-7.9v-0.4c0-1.8-0.5-5-4.8-4.9c-2,0-4.1,0.6-5.6,1.6l-0.9-2.6c1.7-1.1,4.3-1.8,7-1.8c6.5,0,8.1,4.4,8.1,8.7
				V130.4z"/>
		</g>
		<rect x="678.4" y="104.4" class="st0" width="3.9" height="31.1"/>
		<g>
			<path class="st0" d="M340.5,181.5c1,0.2,2.4,0.2,3.8,0.2c8.1,0,12.6-4.6,12.6-12.5c0-7-3.9-11.4-12-11.4c-2,0-3.5,0.2-4.5,0.4
				V181.5z M336.6,155.3c2.4-0.4,5.1-0.6,8.1-0.6c5.5,0,9.4,1.3,12,3.7c2.7,2.4,4.2,5.8,4.2,10.6c0,4.8-1.5,8.8-4.2,11.5
				c-2.8,2.7-7.4,4.2-13.1,4.2c-2.8,0-5-0.1-7-0.3V155.3z"/>
			<path class="st0" d="M373.5,182c3.7,0,6.4-3.5,6.4-8.3c0-3.6-1.8-8.1-6.3-8.1c-4.5,0-6.5,4.2-6.5,8.2
				C367.1,178.5,369.7,182,373.5,182L373.5,182z M373.3,184.9c-5.7,0-10.2-4.2-10.2-10.9c0-7.1,4.7-11.2,10.5-11.2
				c6.1,0,10.2,4.4,10.2,10.9C383.9,181.5,378.4,184.9,373.3,184.9L373.3,184.9z"/>
			<path class="st0" d="M402.7,183.6c-1,0.5-3.3,1.2-6.1,1.2c-6.4,0-10.6-4.3-10.6-10.8c0-6.5,4.5-11.3,11.4-11.3
				c2.3,0,4.3,0.6,5.3,1.1l-0.9,2.9c-0.9-0.5-2.4-1-4.5-1c-4.9,0-7.5,3.6-7.5,8c0,4.9,3.1,7.9,7.3,7.9c2.2,0,3.6-0.5,4.7-1
				L402.7,183.6z"/>
			<path class="st0" d="M419.2,171.8c0-2.5-1-6.3-5.3-6.3c-3.9,0-5.6,3.6-5.9,6.3H419.2z M407.9,174.5c0.1,5.2,3.4,7.3,7.2,7.3
				c2.7,0,4.5-0.5,5.9-1.1l0.7,2.8c-1.4,0.6-3.7,1.4-7.1,1.4c-6.5,0-10.4-4.3-10.4-10.7c0-6.4,3.8-11.4,10-11.4
				c6.9,0,8.7,6.1,8.7,10c0,0.8,0,1.4-0.1,1.8H407.9z"/>
			<path class="st0" d="M426.5,169c0-2.2,0-4-0.2-5.7h3.4l0.2,3.5h0.1c1.1-2,3.5-3.9,7-3.9c2.9,0,7.5,1.7,7.5,9v12.7h-3.9v-12.2
				c0-3.4-1.3-6.3-4.9-6.3c-2.5,0-4.5,1.8-5.2,3.9c-0.2,0.5-0.3,1.2-0.3,1.8v12.8h-3.8V169z"/>
			<path class="st0" d="M464.7,183.6c-1,0.5-3.2,1.2-6.1,1.2c-6.4,0-10.6-4.3-10.6-10.8c0-6.5,4.5-11.3,11.4-11.3
				c2.3,0,4.3,0.6,5.3,1.1l-0.9,2.9c-0.9-0.5-2.4-1-4.5-1c-4.9,0-7.5,3.6-7.5,8c0,4.9,3.1,7.9,7.4,7.9c2.2,0,3.6-0.5,4.7-1
				L464.7,183.6z"/>
			<path class="st0" d="M468.1,163.2h3.9v21.2h-3.9V163.2z M469.9,159.6c-1.4,0-2.3-1.1-2.3-2.4c0-1.4,1-2.4,2.4-2.4
				c1.4,0,2.4,1,2.4,2.4C472.4,158.5,471.4,159.6,469.9,159.6L469.9,159.6z"/>
			<path class="st0" d="M488.3,173.6c-4.2-0.1-9,0.7-9,4.8c0,2.5,1.7,3.7,3.6,3.7c2.8,0,4.6-1.7,5.2-3.5c0.1-0.4,0.2-0.8,0.2-1.2
				V173.6z M492.1,179.3c0,1.8,0.1,3.6,0.3,5.1h-3.5l-0.3-2.7h-0.1c-1.2,1.7-3.5,3.1-6.5,3.1c-4.3,0-6.5-3-6.5-6.1
				c0-5.1,4.5-7.9,12.7-7.9v-0.4c0-1.8-0.5-5-4.8-4.9c-2,0-4.1,0.6-5.5,1.6l-0.9-2.6c1.7-1.1,4.3-1.8,7-1.8c6.5,0,8.1,4.4,8.1,8.7
				V179.3z"/>
			<path class="st0" d="M519.6,171.9c0-0.5-0.1-1.1-0.2-1.7c-0.6-2.4-2.7-4.4-5.6-4.4c-4,0-6.4,3.5-6.4,8.1c0,4.3,2.2,7.9,6.3,7.9
				c2.6,0,4.9-1.8,5.6-4.7c0.1-0.5,0.2-1,0.2-1.6V171.9z M523.5,153.3v25.6c0,1.9,0,4,0.2,5.5h-3.5l-0.2-3.7h-0.1
				c-1.2,2.4-3.7,4.2-7.2,4.2c-5.1,0-9.1-4.3-9.1-10.8c0-7.1,4.4-11.4,9.5-11.4c3.3,0,5.5,1.5,6.4,3.2h0.1v-12.6H523.5z"/>
			<path class="st0" d="M542.1,171.8c0-2.5-1-6.3-5.3-6.3c-3.9,0-5.6,3.6-5.9,6.3H542.1z M530.9,174.5c0.1,5.2,3.4,7.3,7.2,7.3
				c2.8,0,4.5-0.5,5.9-1.1l0.7,2.8c-1.4,0.6-3.7,1.4-7.1,1.4c-6.5,0-10.4-4.3-10.4-10.7c0-6.4,3.8-11.4,10-11.4
				c6.9,0,8.7,6.1,8.7,10c0,0.8,0,1.4-0.1,1.8H530.9z"/>
			<path class="st0" d="M561.5,169.4c0.8,0.2,1.9,0.3,3.2,0.3c4.6,0,7.4-2.2,7.4-6.3c0-3.9-2.8-5.8-7-5.8c-1.7,0-2.9,0.1-3.6,0.3
				V169.4z M557.7,155.3c1.8-0.4,4.2-0.6,7.3-0.6c3.8,0,6.5,0.9,8.3,2.5c1.6,1.4,2.6,3.5,2.6,6.1c0,2.7-0.8,4.8-2.3,6.3
				c-2,2.2-5.3,3.2-9,3.2c-1.2,0-2.2,0-3.1-0.3v11.9h-3.8V155.3z"/>
			<path class="st0" d="M579,169.8c0-2.5,0-4.6-0.2-6.6h3.4l0.2,4.2h0.1c1-2.9,3.3-4.6,5.9-4.6c0.4,0,0.7,0,1.1,0.1v3.6
				c-0.4,0-0.8-0.1-1.3-0.1c-2.7,0-4.7,2.1-5.2,4.9c-0.1,0.6-0.1,1.2-0.1,1.8v11.4H579V169.8z"/>
			<path class="st0" d="M605.1,171.8c0.1-2.5-1-6.3-5.3-6.3c-3.9,0-5.6,3.6-5.9,6.3H605.1z M593.9,174.5c0.1,5.2,3.4,7.3,7.2,7.3
				c2.8,0,4.5-0.5,5.9-1.1l0.7,2.8c-1.4,0.6-3.7,1.4-7.1,1.4c-6.5,0-10.4-4.3-10.4-10.7c0-6.4,3.8-11.4,10-11.4
				c6.9,0,8.7,6.1,8.7,10c0,0.8,0,1.4-0.1,1.8H593.9z"/>
			<path class="st0" d="M626.7,171.5c0-0.6,0-1.2-0.2-1.7c-0.7-2.3-2.5-4.1-5.4-4.1c-3.7,0-6.3,3.1-6.3,8.1c0,4.1,2.1,7.6,6.3,7.6
				c2.4,0,4.6-1.5,5.3-4c0.2-0.6,0.3-1.4,0.3-2.1V171.5z M630.6,181.3c0,4.9-1,7.8-3,9.7c-2.1,1.9-5.1,2.5-7.8,2.5
				c-2.5,0-5.3-0.6-7-1.8l1-3c1.4,0.9,3.6,1.7,6.2,1.7c3.9,0,6.8-2.1,6.8-7.4v-2.3h-0.1c-1.2,2-3.5,3.5-6.7,3.5c-5.3,0-9-4.5-9-10.4
				c0-7.2,4.7-11.2,9.6-11.2c3.7,0,5.7,1.9,6.6,3.7h0.1l0.1-3.2h3.4c-0.1,1.5-0.2,3.2-0.2,5.8V181.3z"/>
			<path class="st0" d="M635.5,169.8c0-2.5-0.1-4.6-0.2-6.6h3.4l0.2,4.2h0.1c1-2.9,3.3-4.6,5.9-4.6c0.4,0,0.7,0,1,0.1v3.6
				c-0.4,0-0.8-0.1-1.3-0.1c-2.7,0-4.7,2.1-5.2,4.9c-0.1,0.6-0.1,1.2-0.1,1.8v11.4h-3.8V169.8z"/>
			<path class="st0" d="M659.6,173.6c-4.2-0.1-9,0.7-9,4.8c0,2.5,1.7,3.7,3.6,3.7c2.8,0,4.6-1.7,5.2-3.5c0.1-0.4,0.2-0.8,0.2-1.2
				V173.6z M663.4,179.3c0,1.8,0.1,3.6,0.3,5.1h-3.5l-0.4-2.7h-0.1c-1.1,1.7-3.5,3.1-6.5,3.1c-4.3,0-6.5-3-6.5-6.1
				c0-5.1,4.5-7.9,12.7-7.9v-0.4c0-1.8-0.5-5-4.8-4.9c-2,0-4.1,0.6-5.6,1.6l-0.9-2.6c1.8-1.1,4.3-1.8,7-1.8c6.5,0,8.1,4.4,8.1,8.7
				V179.3z"/>
			<path class="st0" d="M682.8,171.9c0-0.5-0.1-1.1-0.2-1.7c-0.6-2.4-2.7-4.4-5.6-4.4c-4,0-6.4,3.5-6.4,8.1c0,4.3,2.1,7.9,6.3,7.9
				c2.6,0,5-1.8,5.7-4.7c0.1-0.5,0.2-1,0.2-1.6V171.9z M686.7,153.3v25.6c0,1.9,0,4,0.2,5.5h-3.5l-0.2-3.7h-0.1
				c-1.2,2.4-3.7,4.2-7.2,4.2c-5.1,0-9.1-4.3-9.1-10.8c0-7.1,4.4-11.4,9.5-11.4c3.3,0,5.5,1.5,6.4,3.2h0.1v-12.6H686.7z"/>
			<path class="st0" d="M700.7,182c3.7,0,6.4-3.5,6.4-8.3c0-3.6-1.8-8.1-6.4-8.1c-4.5,0-6.5,4.2-6.5,8.2
				C694.3,178.5,696.9,182,700.7,182L700.7,182z M700.5,184.9c-5.7,0-10.2-4.2-10.2-10.9c0-7.1,4.7-11.2,10.5-11.2
				c6.1,0,10.2,4.4,10.2,10.9C711.1,181.5,705.6,184.9,700.5,184.9L700.5,184.9z"/>
			<path class="st0" d="M343.1,233.4l-9.7-29.5h4.2l4.6,14.5c1.2,4,2.3,7.6,3.2,11h0.1c0.8-3.4,2-7.1,3.4-11l5-14.6h4.1l-10.6,29.5
				H343.1z"/>
			<path class="st0" d="M359.1,212.2h3.9v21.2h-3.9V212.2z M360.9,208.6c-1.4,0-2.3-1.1-2.3-2.4c0-1.4,1-2.4,2.4-2.4
				c1.4,0,2.4,1,2.4,2.4C363.4,207.5,362.4,208.6,360.9,208.6L360.9,208.6z"/>
			<path class="st0" d="M368.1,217.9c0-2.2,0-4-0.2-5.7h3.4l0.2,3.5h0.1c1.1-2,3.5-4,7-4c2.9,0,7.5,1.8,7.5,9v12.7h-3.8v-12.2
				c0-3.4-1.3-6.3-4.9-6.3c-2.5,0-4.5,1.8-5.2,3.9c-0.2,0.5-0.3,1.2-0.3,1.8v12.8h-3.9V217.9z"/>
			<path class="st0" d="M406.4,232.6c-1,0.5-3.2,1.2-6.1,1.2c-6.4,0-10.6-4.3-10.6-10.8c0-6.5,4.5-11.3,11.4-11.3
				c2.3,0,4.3,0.6,5.3,1.2l-0.9,2.9c-0.9-0.5-2.3-1-4.5-1c-4.8,0-7.5,3.6-7.5,8c0,4.9,3.1,7.9,7.4,7.9c2.2,0,3.6-0.5,4.7-1
				L406.4,232.6z"/>
			<path class="st0" d="M427.5,227.6c0,2.2,0,4.2,0.2,5.8h-3.4l-0.2-3.5h-0.1c-1,1.7-3.2,3.9-7,3.9c-3.3,0-7.3-1.9-7.3-9.3v-12.4
				h3.8v11.7c0,4,1.3,6.8,4.7,6.8c2.6,0,4.4-1.8,5.1-3.6c0.2-0.5,0.4-1.2,0.4-2v-13h3.8V227.6z"/>
		</g>
		<rect x="432.7" y="202.3" class="st0" width="3.9" height="31.1"/>
		<g>
			<path class="st0" d="M453,222.6c-4.2-0.1-9,0.7-9,4.8c0,2.5,1.7,3.7,3.6,3.7c2.8,0,4.6-1.8,5.2-3.6c0.1-0.4,0.2-0.8,0.2-1.2
				V222.6z M456.8,228.3c0,1.8,0.1,3.6,0.3,5.1h-3.5l-0.3-2.7h-0.1c-1.1,1.7-3.5,3.1-6.5,3.1c-4.3,0-6.5-3-6.5-6.1
				c0-5.1,4.6-7.9,12.8-7.9v-0.4c0-1.8-0.5-5-4.8-4.9c-2,0-4.1,0.6-5.6,1.6l-0.9-2.6c1.8-1.1,4.3-1.8,7-1.8c6.5,0,8.1,4.4,8.1,8.7
				V228.3z"/>
			<path class="st0" d="M476.9,232.6c-1,0.5-3.2,1.2-6.1,1.2c-6.4,0-10.6-4.3-10.6-10.8c0-6.5,4.5-11.3,11.4-11.3
				c2.3,0,4.3,0.6,5.4,1.2l-0.9,2.9c-0.9-0.5-2.4-1-4.5-1c-4.9,0-7.5,3.6-7.5,8c0,4.9,3.2,7.9,7.4,7.9c2.2,0,3.6-0.5,4.7-1
				L476.9,232.6z"/>
			<path class="st0" d="M480.2,212.2h3.8v21.2h-3.8V212.2z M482,208.6c-1.4,0-2.3-1.1-2.3-2.4c0-1.4,1-2.4,2.4-2.4
				c1.4,0,2.4,1,2.4,2.4C484.5,207.5,483.6,208.6,482,208.6L482,208.6z"/>
			<path class="st0" d="M503.9,203l-5.4,6.3h-2.7l3.9-6.3H503.9z M498.1,231c3.7,0,6.4-3.5,6.4-8.3c0-3.6-1.8-8.1-6.4-8.1
				c-4.5,0-6.5,4.2-6.5,8.2C491.7,227.5,494.3,231,498.1,231L498.1,231z M497.9,233.9c-5.7,0-10.2-4.2-10.2-10.9
				c0-7.1,4.7-11.3,10.5-11.3c6.1,0,10.2,4.4,10.2,10.9C508.4,230.4,503,233.9,497.9,233.9L497.9,233.9z"/>
			<path class="st0" d="M512.1,217.9c0-2.2,0-4-0.2-5.7h3.4l0.2,3.5h0.1c1-2,3.5-4,7-4c2.9,0,7.5,1.8,7.5,9v12.7h-3.9v-12.2
				c0-3.4-1.3-6.3-4.9-6.3c-2.5,0-4.5,1.8-5.2,3.9c-0.2,0.5-0.3,1.2-0.3,1.8v12.8h-3.9V217.9z"/>
			<path class="st0" d="M558.5,232.6c-1,0.5-3.2,1.2-6.1,1.2c-6.4,0-10.6-4.3-10.6-10.8c0-6.5,4.5-11.3,11.4-11.3
				c2.3,0,4.3,0.6,5.4,1.2l-0.9,2.9c-0.9-0.5-2.4-1-4.5-1c-4.9,0-7.5,3.6-7.5,8c0,4.9,3.1,7.9,7.4,7.9c2.2,0,3.6-0.5,4.7-1
				L558.5,232.6z"/>
			<path class="st0" d="M570.4,231c3.7,0,6.4-3.5,6.4-8.3c0-3.6-1.8-8.1-6.3-8.1c-4.5,0-6.5,4.2-6.5,8.2
				C564,227.5,566.6,231,570.4,231L570.4,231z M570.2,233.9c-5.7,0-10.2-4.2-10.2-10.9c0-7.1,4.7-11.3,10.5-11.3
				c6.1,0,10.2,4.4,10.2,10.9C580.7,230.4,575.3,233.9,570.2,233.9L570.2,233.9z"/>
			<path class="st0" d="M584.4,217.9c0-2.2,0-4-0.2-5.7h3.4l0.2,3.5h0.1c1.1-2,3.5-4,7-4c2.9,0,7.5,1.8,7.5,9v12.7h-3.9v-12.2
				c0-3.4-1.3-6.3-4.9-6.3c-2.5,0-4.5,1.8-5.2,3.9c-0.2,0.5-0.3,1.2-0.3,1.8v12.8h-3.9V217.9z"/>
			<path class="st0" d="M629.1,220.7c0-2.5-1-6.3-5.3-6.3c-4,0-5.6,3.6-5.9,6.3H629.1z M617.8,223.5c0.1,5.2,3.4,7.3,7.2,7.3
				c2.7,0,4.4-0.5,5.9-1.1l0.7,2.8c-1.3,0.6-3.7,1.4-7.1,1.4c-6.5,0-10.4-4.3-10.4-10.7c0-6.4,3.8-11.4,10-11.4
				c6.9,0,8.7,6.1,8.7,10c0,0.8,0,1.3-0.1,1.8H617.8z"/>
		</g>
		<rect x="636.4" y="202.3" class="st0" width="3.9" height="31.1"/>
		<g>
			<path class="st0" d="M678.7,220.4c-0.2-4.1-0.5-9.1-0.5-12.7h-0.1c-1,3.4-2.2,7.2-3.7,11.2l-5.2,14.3h-2.9l-4.8-14.1
				c-1.4-4.2-2.5-8-3.4-11.5H658c-0.1,3.7-0.3,8.6-0.6,13.1l-0.8,12.7H653l2.1-29.5h4.9l5,14.3c1.2,3.6,2.2,6.9,3,10h0.1
				c0.8-3,1.8-6.3,3.1-10l5.3-14.3h4.9l1.8,29.5h-3.8L678.7,220.4z"/>
			<path class="st0" d="M701.4,220.7c0-2.5-1-6.3-5.3-6.3c-3.9,0-5.6,3.6-5.9,6.3H701.4z M690.2,223.5c0.1,5.2,3.4,7.3,7.2,7.3
				c2.8,0,4.5-0.5,5.9-1.1l0.7,2.8c-1.4,0.6-3.7,1.4-7.1,1.4c-6.5,0-10.4-4.3-10.4-10.7c0-6.4,3.8-11.4,10-11.4
				c6.9,0,8.7,6.1,8.7,10c0,0.8-0.1,1.3-0.1,1.8H690.2z"/>
			<path class="st0" d="M723.2,220.8c0-0.5,0-1.1-0.2-1.7c-0.6-2.4-2.7-4.4-5.5-4.4c-4,0-6.4,3.5-6.4,8.1c0,4.3,2.1,7.9,6.3,7.9
				c2.6,0,5-1.8,5.6-4.6c0.1-0.5,0.2-1,0.2-1.6V220.8z M727,202.3v25.6c0,1.9,0,4,0.2,5.5h-3.5l-0.2-3.7h-0.1
				c-1.2,2.4-3.7,4.2-7.2,4.2c-5.1,0-9.1-4.3-9.1-10.8c-0.1-7.1,4.4-11.4,9.5-11.4c3.3,0,5.5,1.5,6.4,3.2h0.1v-12.6H727z"/>
			<path class="st0" d="M732.3,212.2h3.9v21.2h-3.9V212.2z M734.1,208.6c-1.4,0-2.3-1.1-2.3-2.4c0-1.4,1-2.4,2.4-2.4
				c1.4,0,2.4,1,2.4,2.4C736.6,207.5,735.6,208.6,734.1,208.6L734.1,208.6z"/>
			<path class="st0" d="M750.1,231c3.7,0,6.4-3.5,6.4-8.3c0-3.6-1.8-8.1-6.3-8.1c-4.5,0-6.5,4.2-6.5,8.2
				C743.7,227.5,746.4,231,750.1,231L750.1,231z M750,233.9c-5.7,0-10.2-4.2-10.2-10.9c0-7.1,4.7-11.3,10.5-11.3
				c6.1,0,10.2,4.4,10.2,10.9C760.5,230.4,755,233.9,750,233.9L750,233.9z"/>
		</g>
		<rect x="303.5" y="112.8" class="st0" width="18.3" height="18.3"/>
		<rect x="303.5" y="162.6" class="st0" width="18.3" height="18.3"/>
		<rect x="303.5" y="211.1" class="st0" width="18.3" height="18.3"/>
		<line class="st1" x1="266.9" y1="82.3" x2="266.9" y2="245.2"/>
		<g>
			<path class="st0" d="M26.6,293.6c0.9,0.2,2,0.3,3.4,0.3c5,0,8-2.2,8-6.1c0-3.8-3-5.7-7.5-5.7c-1.8,0-3.1,0.1-3.9,0.3V293.6z
				 M22.5,279.8c2-0.3,4.6-0.6,7.9-0.6c4,0,7,0.9,8.9,2.4c1.7,1.4,2.8,3.5,2.8,6c0,2.6-0.8,4.7-2.5,6.2c-2.2,2.1-5.7,3.2-9.7,3.2
				c-1.2,0-2.4,0-3.3-0.3v11.6h-4.1V279.8z"/>
			<path class="st0" d="M57.4,305.9c4,0,6.9-3.4,6.9-8.1c0-3.5-1.9-7.9-6.8-7.9c-4.9,0-7,4.1-7,8.1
				C50.5,302.5,53.4,305.9,57.4,305.9L57.4,305.9z M57.2,308.8c-6.1,0-10.9-4.1-10.9-10.7c0-6.9,5-11,11.3-11c6.6,0,11,4.3,11,10.6
				C68.6,305.4,62.7,308.8,57.2,308.8L57.2,308.8z"/>
			<path class="st0" d="M75.5,294c0-2.4,0-4.5-0.2-6.5H79l0.2,4.1h0.1c1-2.8,3.6-4.5,6.4-4.5c0.4,0,0.8,0,1.1,0.1v3.6
				c-0.4-0.1-0.9-0.1-1.4-0.1c-2.9,0-5,2-5.6,4.8c-0.1,0.5-0.1,1.2-0.1,1.8v11.1h-4.2V294z"/>
			<path class="st0" d="M124.8,297.8v-9.3c0-1.5,0.1-2.9,0.1-4.4h-0.1c-0.9,1.6-1.7,2.8-2.5,4.1l-7.5,9.5v0.1H124.8z M124.8,308.3
				v-7.6h-14.2v-2.4l13.7-17.8h4.5v17.3h4.3v2.9h-4.3v7.6H124.8z"/>
			<path class="st0" d="M171.8,297.7c-4.5-0.1-9.7,0.7-9.7,4.7c0,2.5,1.8,3.6,3.9,3.6c3,0,4.9-1.7,5.6-3.5c0.1-0.4,0.2-0.8,0.2-1.2
				V297.7z M175.9,303.3c0,1.8,0.1,3.6,0.3,5h-3.7l-0.4-2.6H172c-1.2,1.6-3.7,3.1-7,3.1c-4.6,0-7-3-7-6c0-5,4.9-7.7,13.7-7.7v-0.4
				c0-1.7-0.5-4.8-5.2-4.8c-2.2,0-4.4,0.6-6,1.6l-1-2.5c1.9-1.1,4.7-1.8,7.5-1.8c7,0,8.7,4.3,8.7,8.5V303.3z"/>
			<path class="st0" d="M188.1,284c-0.1-2.8,1.2-4.4,3.2-4.4c1,0,1.8,0.4,2.9,0.9c0.7,0.4,1.4,0.7,2,0.7c0.7,0,1.2-0.4,1.3-1.8h2.2
				c0,2.8-1,4.3-3.2,4.3c-1,0-1.9-0.4-2.9-0.9c-1-0.5-1.5-0.8-2-0.8c-0.8,0-1.1,0.7-1.2,1.9H188.1z M184.2,293.2
				c0-2.2,0-3.9-0.2-5.6h3.7l0.2,3.4h0.1c1.1-1.9,3.8-3.8,7.5-3.8c3.2,0,8.1,1.7,8.1,8.8v12.4h-4.1v-11.9c0-3.3-1.4-6.2-5.3-6.2
				c-2.7,0-4.8,1.8-5.6,3.8c-0.2,0.5-0.3,1.2-0.3,1.8v12.5h-4.2V293.2z"/>
			<path class="st0" d="M221.6,305.9c4,0,6.9-3.4,6.9-8.1c0-3.5-1.9-7.9-6.8-7.9c-4.9,0-7,4.1-7,8.1
				C214.7,302.5,217.5,305.9,221.6,305.9L221.6,305.9z M221.4,308.8c-6.1,0-10.9-4.1-10.9-10.7c0-6.9,5-11,11.3-11
				c6.5,0,11,4.3,11,10.6C232.7,305.4,226.8,308.8,221.4,308.8L221.4,308.8z"/>
			<path class="st0" d="M239.1,304.4c1.3,0.7,3.4,1.5,5.5,1.5c3,0,4.4-1.3,4.4-3.1c0-1.8-1.2-2.7-4.2-3.8c-4.2-1.4-6.1-3.4-6.1-5.9
				c0-3.3,3-6.1,7.9-6.1c2.3,0,4.3,0.6,5.6,1.3l-1,2.7c-0.9-0.5-2.5-1.2-4.7-1.2c-2.5,0-3.8,1.3-3.8,2.8c0,1.7,1.3,2.5,4.3,3.6
				c3.9,1.3,6,3.1,6,6.2c0,3.7-3.2,6.2-8.5,6.2c-2.5,0-4.8-0.6-6.4-1.5L239.1,304.4z"/>
			<path class="st0" d="M280.7,277.9h4.2v12.9h0.1c0.7-1.1,1.7-2.1,3-2.7c1.2-0.7,2.7-1.1,4.2-1.1c3.1,0,8,1.7,8,8.9v12.3h-4.2
				v-11.9c0-3.3-1.4-6.1-5.3-6.1c-2.7,0-4.8,1.7-5.6,3.8c-0.2,0.5-0.3,1.1-0.3,1.8v12.5h-4.2V277.9z"/>
			<path class="st0" d="M320.6,297.7c-4.5-0.1-9.7,0.7-9.7,4.7c0,2.5,1.8,3.6,3.9,3.6c3,0,5-1.7,5.6-3.5c0.1-0.4,0.2-0.8,0.2-1.2
				V297.7z M324.6,303.3c0,1.8,0.1,3.6,0.3,5h-3.7l-0.4-2.6h-0.1c-1.2,1.6-3.7,3.1-7,3.1c-4.6,0-7-3-7-6c0-5,4.9-7.7,13.7-7.7v-0.4
				c0-1.7-0.5-4.8-5.2-4.8c-2.2,0-4.4,0.6-6,1.6l-1-2.5c1.9-1.1,4.7-1.8,7.5-1.8c7,0,8.7,4.3,8.7,8.5V303.3z"/>
			<path class="st0" d="M332.4,304.4c1.3,0.7,3.4,1.5,5.5,1.5c3,0,4.4-1.3,4.4-3.1c0-1.8-1.2-2.7-4.2-3.8c-4.1-1.4-6.1-3.4-6.1-5.9
				c0-3.3,3-6.1,7.9-6.1c2.3,0,4.4,0.6,5.6,1.3l-1,2.7c-0.9-0.5-2.6-1.2-4.7-1.2c-2.5,0-3.8,1.3-3.8,2.8c0,1.7,1.3,2.5,4.3,3.6
				c3.9,1.3,6,3.1,6,6.2c0,3.7-3.2,6.2-8.5,6.2c-2.5,0-4.8-0.6-6.4-1.5L332.4,304.4z"/>
			<path class="st0" d="M358.3,282.6v5h5.9v2.9h-5.9v11.2c0,2.6,0.8,4,3.1,4c1.1,0,1.8-0.1,2.4-0.2l0.2,2.9
				c-0.8,0.3-2.1,0.5-3.7,0.5c-1.9,0-3.5-0.6-4.5-1.6c-1.1-1.2-1.6-3-1.6-5.4v-11.3h-3.5v-2.9h3.5v-3.8L358.3,282.6z"/>
			<path class="st0" d="M382.6,297.7c-4.5-0.1-9.7,0.7-9.7,4.7c0,2.5,1.8,3.6,3.9,3.6c3,0,5-1.7,5.6-3.5c0.1-0.4,0.2-0.8,0.2-1.2
				V297.7z M386.7,303.3c0,1.8,0.1,3.6,0.3,5h-3.7l-0.4-2.6h-0.1c-1.2,1.6-3.7,3.1-7,3.1c-4.6,0-7-3-7-6c0-5,4.9-7.7,13.7-7.7v-0.4
				c0-1.7-0.5-4.8-5.2-4.8c-2.2,0-4.4,0.6-6,1.6l-0.9-2.5c1.9-1.1,4.7-1.8,7.5-1.8c7,0,8.7,4.3,8.7,8.5V303.3z"/>
			<path class="st0" d="M415.7,293.2c0-2.2,0-3.9-0.2-5.6h3.7l0.2,3.4h0.1c1.1-1.9,3.8-3.8,7.5-3.8c3.2,0,8.1,1.7,8.1,8.8v12.4H431
				v-11.9c0-3.3-1.4-6.2-5.3-6.2c-2.7,0-4.8,1.8-5.6,3.8c-0.2,0.5-0.3,1.2-0.3,1.8v12.5h-4.2V293.2z"/>
			<path class="st0" d="M453,305.9c4,0,6.9-3.4,6.9-8.1c0-3.5-1.9-7.9-6.8-7.9c-4.9,0-7,4.1-7,8.1C446.1,302.5,449,305.9,453,305.9
				L453,305.9z M452.8,308.8c-6.1,0-10.9-4.1-10.9-10.7c0-6.9,5.1-11,11.3-11c6.6,0,11,4.3,11,10.6
				C464.2,305.4,458.3,308.8,452.8,308.8L452.8,308.8z"/>
			<path class="st0" d="M472.4,287.6l4.5,11.6c0.8,1.9,1.4,3.6,1.8,5.3h0.1c0.5-1.7,1.2-3.4,1.9-5.3l4.4-11.6h4.3l-9,20.7h-4
				l-8.7-20.7H472.4z"/>
			<path class="st0" d="M495.2,287.6h4.2v20.7h-4.2V287.6z M497.2,284c-1.5,0-2.5-1.1-2.5-2.3c0-1.3,1-2.4,2.6-2.4
				c1.5,0,2.5,1,2.5,2.4C499.8,283,498.8,284,497.2,284L497.2,284z"/>
			<path class="st0" d="M522.4,295.9c0-2.4-1.1-6.1-5.7-6.1c-4.2,0-6,3.5-6.4,6.1H522.4z M510.3,298.6c0.1,5.1,3.6,7.2,7.8,7.2
				c2.9,0,4.8-0.5,6.3-1.1l0.8,2.7c-1.5,0.6-4,1.3-7.6,1.3c-7,0-11.2-4.2-11.2-10.4c0-6.3,4.1-11.2,10.8-11.2c7.5,0,9.4,6,9.4,9.8
				c0,0.8,0,1.3-0.1,1.8H510.3z"/>
			<path class="st0" d="M533.2,293.2c0-2.2-0.1-3.9-0.2-5.6h3.6l0.2,3.3h0.1c1.3-2,3.4-3.8,7.2-3.8c3.1,0,5.4,1.7,6.4,4.2h0.1
				c0.7-1.2,1.6-2.1,2.6-2.7c1.4-0.9,2.8-1.5,5-1.5c3.1,0,7.5,1.8,7.5,9v12.2h-4v-11.7c0-4-1.6-6.4-4.9-6.4c-2.4,0-4.2,1.6-5,3.4
				c-0.2,0.6-0.3,1.2-0.3,1.9v12.8h-4v-12.5c0-3.3-1.6-5.7-4.8-5.7c-2.5,0-4.5,1.9-5.1,3.8c-0.2,0.6-0.3,1.2-0.3,1.9v12.5h-4.1
				V293.2z"/>
			<path class="st0" d="M578.4,300c0,0.5,0,0.9,0.1,1.4c0.8,2.6,3.3,4.4,6.2,4.4c4.4,0,6.9-3.2,6.9-8c0-4.2-2.4-7.7-6.8-7.7
				c-2.8,0-5.5,1.8-6.3,4.6c-0.1,0.5-0.2,1-0.2,1.6V300z M574.2,277.9h4.2v13h0.1c1.5-2.3,4.1-3.8,7.8-3.8c5.7,0,9.6,4.3,9.6,10.5
				c0,7.4-5.2,11.1-10.3,11.1c-3.3,0-5.9-1.1-7.6-3.9h-0.1l-0.2,3.4H574c0.1-1.4,0.2-3.5,0.2-5.3V277.9z"/>
			<path class="st0" d="M602.8,294c0-2.4-0.1-4.5-0.2-6.5h3.6l0.2,4.1h0.1c1-2.8,3.6-4.5,6.4-4.5c0.4,0,0.8,0,1.1,0.1v3.6
				c-0.4-0.1-0.8-0.1-1.4-0.1c-2.9,0-5,2-5.6,4.8c-0.1,0.5-0.1,1.2-0.1,1.8v11.1h-4.1V294z"/>
			<path class="st0" d="M633.9,295.9c0-2.4-1.1-6.1-5.7-6.1c-4.2,0-6.1,3.5-6.4,6.1H633.9z M621.8,298.6c0.1,5.1,3.6,7.2,7.8,7.2
				c3,0,4.8-0.5,6.3-1.1l0.8,2.7c-1.5,0.6-4,1.3-7.6,1.3c-7,0-11.2-4.2-11.2-10.4c0-6.3,4.1-11.2,10.8-11.2c7.5,0,9.4,6,9.4,9.8
				c0,0.8,0,1.3-0.1,1.8H621.8z"/>
		</g>
	</g>
	<g>
		<path class="st0" d="M661.4,308.5v-2.4l3.2-2.8c8.5-7.6,11.6-10.8,11.6-14.7c0-2.8-1.4-5.7-6.1-5.7c-2.8,0-5.2,1.4-6.7,2.7
			l-1.4-2.7c2.3-2,5.4-3.2,8.9-3.2c6.6,0,9.3,4.5,9.3,8.4c0,5.3-3.9,9.2-10.7,15.2l-2.4,2v0.1h13.8v3.2H661.4z"/>
		<path class="st0" d="M707.6,293.9c0,9.4-3.7,15.1-10.7,15.1c-5.9,0-10-5.2-10.2-14.6c0-9.6,4.5-14.9,10.7-14.9
			C703.9,279.6,707.6,284.9,707.6,293.9z M690.7,294.4c0,7.6,2.7,11.6,6.4,11.6c4.3,0,6.5-4.5,6.5-11.9c0-7.1-2-11.5-6.4-11.5
			C693.6,282.6,690.7,286.5,690.7,294.4z"/>
		<path class="st0" d="M712.8,308.5v-2.4l3.2-2.8c8.5-7.6,11.6-10.8,11.6-14.7c0-2.8-1.4-5.7-6.1-5.7c-2.8,0-5.2,1.4-6.7,2.7
			l-1.4-2.7c2.3-2,5.4-3.2,8.9-3.2c6.6,0,9.3,4.5,9.3,8.4c0,5.3-3.9,9.2-10.7,15.2l-2.4,2v0.1h13.8v3.2H712.8z"/>
		<path class="st0" d="M739.6,303.8c1.2,0.7,4,2,7.1,2c5.5,0,6.9-3.5,6.9-5.5c0-4.1-4.1-5.6-7.9-5.6h-2.6v-3h2.7
			c3.1,0,6.7-1.4,6.7-4.7c0-2.1-1.4-4.2-5.4-4.2c-2.5,0-5,1.1-6.4,2.1l-1.1-2.9c1.7-1.2,4.9-2.4,8.2-2.4c6.2,0,8.8,3.5,8.8,6.9
			c0,3-1.9,5.5-5.5,6.7v0.1c3.8,0.7,6.7,3.5,6.7,7.3c0,4.5-3.7,8.6-11.1,8.6c-3.6,0-6.7-1.1-8.1-2.1L739.6,303.8z"/>
	</g>
</g>
</svg>
