<?xml version="1.0" encoding="utf-8"?>
<!-- Generator: Adobe Illustrator 22.1.0, SVG Export Plug-In . SVG Version: 6.00 Build 0)  -->
<svg version="1.1" id="Capa_1" xmlns="http://www.w3.org/2000/svg" xmlns:xlink="http://www.w3.org/1999/xlink" x="0px" y="0px"
	 viewBox="0 0 216.5 133.6" style="enable-background:new 0 0 216.5 133.6;" xml:space="preserve">
<style type="text/css">
	.st0{fill:#FFFFFF;}
	.st1{fill:#FF5B00;}
	.st2{fill:#2FA8E1;}
	.st3{fill:#E94190;}
</style>
<title>Mesa de trabajo 2</title>
<path class="st0" d="M7.6,28.6v28.3c0,4,0.7,7,2,8.8c2,2.7,4.9,4,8.6,4s6.5-1.3,8.6-4c1.3-1.8,2-4.8,2-8.8V28.6H36v30.2
	c0,5-1.5,9-4.8,12.3c-3.6,3.6-8,5.4-13.1,5.4c-5.2,0-9.5-1.8-13.1-5.4c-3.2-3.2-4.8-7.3-4.8-12.3V28.6H7.6z"/>
<path class="st0" d="M41.3,75.6V25.4l35.2,35.8V28.6h7.3v49.9L48.6,42.6v33H41.3z"/>
<path class="st0" d="M96.4,28.6v47h-7.3v-47C89.1,28.6,96.4,28.6,96.4,28.6z"/>
<path class="st0" d="M131.6,64.2h-20.7l-5.4,11.4h-7.9l23.9-50l23.1,50h-8.1L131.6,64.2z M128.6,57.5l-7.1-16l-7.5,16H128.6z"/>
<path class="st0" d="M178.5,31.1v8.3c-4.2-3.5-8.6-5.1-13.1-5.1c-5,0-9.2,1.8-12.5,5.2c-3.5,3.5-5.1,7.6-5.1,12.6
	c0,4.9,1.7,9,5.1,12.5c3.5,3.5,7.6,5.1,12.6,5.1c2.5,0,4.8-0.4,6.5-1.2c1-0.4,2-1,3.1-1.7s2.3-1.5,3.5-2.5V73
	c-4.2,2.3-8.6,3.5-13.1,3.5c-6.9,0-12.7-2.4-17.6-7c-4.9-4.8-7.3-10.5-7.3-17.1c0-6,2-11.3,6.1-16.1c5-5.7,11.4-8.6,19.4-8.6
	C170.3,27.6,174.5,28.7,178.5,31.1z"/>
<path class="st0" d="M216.4,31.1v8.3c-4.2-3.5-8.6-5.1-13.1-5.1c-5,0-9.2,1.8-12.5,5.2c-3.5,3.5-5.1,7.6-5.1,12.6
	c0,4.9,1.7,9,5.1,12.5c3.5,3.5,7.6,5.1,12.6,5.1c2.6,0,4.8-0.4,6.5-1.2c1-0.4,2-1,3.1-1.7s2.3-1.5,3.5-2.5V73
	c-4.2,2.3-8.6,3.5-13.1,3.5c-6.9,0-12.7-2.4-17.7-7c-4.9-4.8-7.3-10.5-7.3-17.1c0-6,2-11.3,6.1-16.1c5-5.7,11.4-8.6,19.4-8.6
	C208.2,27.6,212.3,28.7,216.4,31.1z"/>
<rect x="0.2" y="82.3" class="st1" width="48.4" height="6.8"/>
<rect x="48.6" y="82.3" class="st2" width="35.2" height="6.8"/>
<polygon class="st3" points="99.2,89.1 83.9,89.1 83.9,82.3 102.5,82.3 "/>
<polygon class="st0" points="102.5,82.3 147.8,82.3 147.8,98.8 167.9,82.3 216.4,82.3 216.4,89.1 170.2,89.1 140.9,113.4 
	140.9,89.1 99.2,89.1 "/>
<g>
	<path class="st0" d="M56,1.5c0-0.5,0.2-0.7,0.6-0.7s0.6,0.2,0.6,0.7v5.6c0,2.4-1.2,3.6-3.1,3.6c-1.8,0-3.1-1.2-3.1-3.6V1.5
		c0-0.5,0.2-0.7,0.6-0.7c0.4,0,0.6,0.2,0.6,0.7v5.6c0,1.5,0.8,2.4,1.9,2.4c1.2,0,1.9-0.8,1.9-2.4V1.5z"/>
	<path class="st0" d="M62.6,1.6c0-0.5,0.2-0.7,0.6-0.7s0.6,0.2,0.7,0.6l3.7,6.8l0,0V1.5c0-0.4,0.2-0.6,0.5-0.6
		c0.4,0,0.5,0.2,0.5,0.6v8.3c0,0.5-0.2,0.7-0.6,0.7s-0.6-0.2-0.8-0.6l-3.7-6.8l0,0v6.8c0,0.4-0.2,0.6-0.5,0.6
		c-0.4,0-0.5-0.2-0.5-0.6V1.6H62.6z"/>
	<path class="st0" d="M74.2,1.5c0-0.5,0.2-0.7,0.6-0.7s0.6,0.2,0.6,0.7V10c0,0.5-0.2,0.7-0.6,0.7s-0.6-0.2-0.6-0.7V1.5z"/>
	<path class="st0" d="M83.4,8.5L83.4,8.5l2.1-7.1C85.7,1,85.8,0.9,86,0.9c0.4,0,0.6,0.2,0.6,0.6c0,0.1,0,0.2,0,0.4L84.1,10
		c-0.1,0.5-0.4,0.7-0.7,0.7s-0.5-0.2-0.7-0.7l-2.5-8.1c0-0.1,0-0.2,0-0.4c0-0.4,0.2-0.6,0.6-0.6c0.2,0,0.5,0.1,0.6,0.5L83.4,8.5z"/>
	<path class="st0" d="M91.4,1.5c0-0.4,0.2-0.6,0.5-0.6h4.4c0.4,0,0.6,0.2,0.6,0.6s-0.2,0.6-0.6,0.6h-3.8c0,0-0.1,0-0.1,0.1v2.7
		c0,0,0,0.1,0.1,0.1h3.1c0.4,0,0.6,0.2,0.6,0.6S96,6.2,95.6,6.2h-3.1c0,0-0.1,0-0.1,0.1v3c0,0,0,0.1,0.1,0.1h3.8
		c0.4,0,0.6,0.2,0.6,0.6s-0.2,0.6-0.6,0.6h-4.4c-0.4,0-0.5-0.2-0.5-0.6V1.5z"/>
	<path class="st0" d="M102,9.9V1.5c0-0.4,0.2-0.6,0.5-0.6h2.7c1.7,0,2.7,1.1,2.7,2.7c0,1.3-0.6,2.3-1.7,2.6l1.5,3.5
		c0,0.1,0.1,0.2,0.1,0.4c0,0.4-0.2,0.6-0.6,0.6c-0.2,0-0.4-0.1-0.6-0.4l-1.7-3.7H103c0,0-0.1,0-0.1,0.1V10c0,0.5-0.2,0.7-0.6,0.7
		C102.2,10.5,102,10.3,102,9.9z M106.7,3.6c0-1-0.6-1.5-1.5-1.5h-2c0,0-0.1,0-0.1,0.1v3c0,0,0,0.1,0.1,0.1h2
		C106.1,5.3,106.7,4.7,106.7,3.6z"/>
	<path class="st0" d="M113,9.8c-0.1-0.1-0.2-0.4-0.2-0.6c0-0.4,0.2-0.6,0.6-0.6c0.1,0,0.2,0,0.4,0.1c0.6,0.5,1.3,0.7,2.1,0.7
		c1.2,0,1.9-0.6,1.9-1.7c0-0.8-0.4-1.3-1.8-1.5l-0.5-0.1c-1.8-0.2-2.5-1.2-2.5-2.6c0-1.7,1.1-2.9,2.9-2.9c1,0,1.8,0.2,2.3,0.6
		c0.2,0.1,0.4,0.4,0.4,0.6c0,0.4-0.2,0.6-0.5,0.6c-0.1,0-0.2,0-0.4-0.1c-0.6-0.2-1.1-0.5-1.8-0.5c-1.1,0-1.7,0.7-1.7,1.5
		s0.5,1.3,1.8,1.5l0.5,0.1c1.8,0.2,2.6,1.2,2.6,2.7c0,1.7-1.1,2.9-3.2,2.9C114.6,10.6,113.6,10.3,113,9.8z"/>
	<path class="st0" d="M124,1.5c0-0.5,0.2-0.7,0.6-0.7s0.6,0.2,0.6,0.7V10c0,0.5-0.2,0.7-0.6,0.7S124,10.5,124,10V1.5z"/>
	<path class="st0" d="M130.7,1.5c0-0.4,0.2-0.6,0.5-0.6h2.1c1.7,0,2.7,0.7,3.1,2.1c0.2,0.6,0.2,1.2,0.2,2.6s-0.1,2-0.2,2.6
		c-0.5,1.4-1.4,2.1-3.1,2.1h-2.1c-0.4,0-0.5-0.2-0.5-0.6V1.5z M131.9,9.3h1.4c1.2,0,1.8-0.4,2.1-1.4c0.1-0.5,0.2-1.1,0.2-2.1
		c0-1.2-0.1-1.7-0.2-2.1c-0.4-1.1-1-1.4-2.1-1.4h-1.4c0,0-0.1,0-0.1,0.1L131.9,9.3C131.7,9.3,131.9,9.3,131.9,9.3z"/>
	<path class="st0" d="M141.1,9.7l2.6-8.2c0.1-0.5,0.4-0.7,0.7-0.7c0.4,0,0.6,0.2,0.7,0.7l2.6,8.2c0,0.1,0,0.2,0,0.2
		c0,0.4-0.2,0.6-0.5,0.6s-0.5-0.1-0.6-0.5L146,8.1h-3.6L142,10c-0.1,0.2-0.2,0.5-0.6,0.5c-0.2,0-0.5-0.2-0.5-0.6
		C141.1,9.9,141.1,9.8,141.1,9.7z M146,7.1l-1.4-4.4l0,0l-1.4,4.4H146z"/>
	<path class="st0" d="M152.8,1.5c0-0.4,0.2-0.6,0.5-0.6h2.1c1.7,0,2.7,0.7,3.1,2.1c0.2,0.6,0.2,1.2,0.2,2.6s-0.1,2-0.2,2.6
		c-0.5,1.4-1.4,2.1-3.1,2.1h-2.1c-0.4,0-0.5-0.2-0.5-0.6V1.5z M154.1,9.3h1.4c1.2,0,1.8-0.4,2.1-1.4c0.1-0.5,0.2-1.1,0.2-2.1
		c0-1.2-0.1-1.7-0.2-2.1c-0.4-1.1-1-1.4-2.1-1.4h-1.4c0,0-0.1,0-0.1,0.1L154.1,9.3C154,9.3,154,9.3,154.1,9.3z"/>
</g>
<path class="st0" d="M6.4,127.5c1.1,0.4,1.7,1.4,1.5,2.5c0,0.8-0.2,1.7-0.9,2.1c-0.7,0.5-1.5,0.8-2.4,0.7H1c-0.1,0-0.1,0-0.1-0.1
	l-0.1-0.1v-10c0,0,0-0.1,0.1-0.1l0.1-0.1h3.5c0.8,0,1.8,0.2,2.4,0.7s0.9,1.3,0.8,2.1C8,126.2,7.4,127.1,6.4,127.5L6.4,127.5z
	 M2.3,123.7v3.2c0,0,0,0.1,0.1,0.1l0,0h2.2c0.5,0,0.9-0.1,1.4-0.4c0.4-0.4,0.5-0.7,0.5-1.2s-0.1-0.9-0.5-1.2
	c-0.4-0.4-0.8-0.5-1.4-0.5H2.3C2.3,123.6,2.3,123.7,2.3,123.7L2.3,123.7z M6.1,131.1c0.7-0.7,0.7-1.9,0-2.6
	c-0.4-0.4-0.8-0.5-1.4-0.5H2.3H2.2l0,0v3.3v0.1l0,0h2.4C5.3,131.6,5.7,131.5,6.1,131.1L6.1,131.1z"/>
<path class="st0" d="M13.9,132.8l-0.1-0.1v-10c0-0.1,0.1-0.2,0.2-0.2l0,0h1.1c0.1,0,0.2,0.1,0.2,0.2l0,0v10c0,0.1-0.1,0.2-0.2,0.2
	l0,0h-0.9C14,132.9,13.9,132.9,13.9,132.8z"/>
<path class="st0" d="M28.2,123.6l-0.1,0.1h-5.2h-0.1l0,0v3.2c0,0,0,0.1,0.1,0.1l0,0h3.5c0.1,0,0.2,0.1,0.2,0.2l0,0v0.8
	c0,0.1-0.1,0.2-0.2,0.2l0,0h-3.5h-0.1l0,0v3.3v0.1l0,0H28c0.1,0,0.2,0.1,0.2,0.2l0,0v0.8c0,0.1-0.1,0.2-0.2,0.2l0,0h-6.5
	c-0.1,0-0.2-0.1-0.2-0.2l0,0v-10c0-0.1,0.1-0.2,0.2-0.2l0,0H28c0.1,0,0.2,0.1,0.2,0.2l0,0v0.8C28.3,123.5,28.3,123.6,28.2,123.6z"/>
<path class="st0" d="M34,132.8l-0.1-0.1v-10c0-0.1,0.1-0.2,0.2-0.2l0,0H35c0.1,0,0.2,0,0.2,0.1l4.6,7.4c0,0,0,0,0.1,0s0,0,0-0.1
	v-7.3c0-0.1,0.1-0.2,0.2-0.2l0,0H41c0.1,0,0.2,0.1,0.2,0.2l0,0v10c0,0.1-0.1,0.2-0.2,0.2l0,0h-0.9c-0.1,0-0.2,0-0.2-0.1l-4.6-7.4
	c0,0,0,0-0.1,0s0,0,0,0.1v7.3c0,0.1-0.1,0.2-0.2,0.2l0,0L34,132.8C34.1,132.9,34,132.9,34,132.8z"/>
<path class="st0" d="M49.9,132.7l-3.2-10v-0.1c0-0.1,0.1-0.1,0.2-0.1H48c0.1,0,0.1,0,0.1,0l0.1,0.1l2.5,8.1v0.1c0,0,0,0,0-0.1
	l2.5-8.1c0,0,0-0.1,0.1-0.1h0.1h0.9c0.2,0,0.2,0.1,0.2,0.2l-3.2,10c0,0.1-0.1,0.2-0.2,0.2H50C50,132.8,49.9,132.8,49.9,132.7z"/>
<path class="st0" d="M66.8,123.6L66.8,123.6l-5.3,0.1h-0.1l0,0v3.2c0,0,0,0.1,0.1,0.1l0,0H65c0.1,0,0.2,0.1,0.2,0.2l0,0v0.8
	c0,0.1-0.1,0.2-0.2,0.2l0,0h-3.5h-0.1l0,0v3.3v0.1l0,0h5.2c0.1,0,0.2,0.1,0.2,0.2l0,0v0.8c0,0.1-0.1,0.2-0.2,0.2l0,0H60
	c-0.1,0-0.2-0.1-0.2-0.2l0,0v-10c0-0.1,0.1-0.2,0.2-0.2l0,0h6.5c0.1,0,0.2,0.1,0.2,0.2l0,0v1C66.8,123.5,66.8,123.6,66.8,123.6z"/>
<path class="st0" d="M72.4,132.8l-0.1-0.1v-10c0-0.1,0.1-0.2,0.2-0.2l0,0h0.9c0.1,0,0.2,0,0.2,0.1l4.5,7.4c0,0,0,0,0.1,0s0,0,0-0.1
	v-7.3c0-0.1,0.1-0.2,0.2-0.2l0,0h0.9c0.1,0,0.2,0.1,0.2,0.2l0,0v10c0,0.1-0.1,0.2-0.2,0.2l0,0h-0.9c-0.1,0-0.2,0-0.2-0.1l-4.6-7.4
	c0,0,0,0-0.1,0s0,0,0,0.1v7.3c0,0.1-0.1,0.2-0.2,0.2l0,0L72.4,132.8C72.6,132.9,72.4,132.8,72.4,132.8z"/>
<path class="st0" d="M86,132.8l-0.1-0.1v-10c0-0.1,0.1-0.2,0.2-0.2l0,0H87c0.1,0,0.2,0.1,0.2,0.2l0,0v10c0,0.1-0.1,0.2-0.2,0.2l0,0
	L86,132.8C86.1,132.9,86.1,132.9,86,132.8z"/>
<path class="st0" d="M93.6,132.8l-0.1-0.1v-10c0-0.1,0.1-0.2,0.2-0.2l0,0h3.5c0.9,0,1.8,0.2,2.5,0.8c0.6,0.6,0.9,1.3,0.9,2.1v4.5
	c0,0.8-0.4,1.7-0.9,2.1c-0.7,0.6-1.5,0.8-2.5,0.8H93.6C93.7,132.9,93.6,132.9,93.6,132.8z M95,131.6h2.2c0.5,0,1.1-0.1,1.4-0.5
	c0.4-0.4,0.6-0.9,0.5-1.4v-4.1c0-0.5-0.1-1.1-0.5-1.4s-0.8-0.6-1.4-0.5H95h-0.1l0,0L95,131.6C94.9,131.6,94.9,131.6,95,131.6
	L95,131.6z"/>
<path class="st0" d="M107.8,132.5c-0.6-0.2-0.9-0.7-1.3-1.3s-0.5-1.2-0.5-1.9v-3.5c0-0.7,0.1-1.3,0.5-1.9s0.7-0.9,1.3-1.3
	c1.2-0.6,2.6-0.6,3.9,0c0.6,0.2,0.9,0.7,1.3,1.3c0.4,0.6,0.5,1.2,0.5,1.9v3.7c0,0.7-0.1,1.3-0.5,1.9s-0.7,0.9-1.3,1.3
	C110.5,133.1,109.1,133.1,107.8,132.5L107.8,132.5z M111.3,131.1c0.5-0.5,0.7-1.1,0.6-1.7v-3.7c0-0.6-0.2-1.2-0.6-1.7
	c-0.5-0.5-1.1-0.7-1.7-0.6c-0.6,0-1.2,0.2-1.7,0.6c-0.5,0.5-0.6,1.1-0.6,1.7v3.7c0,0.6,0.2,1.2,0.6,1.7c0.5,0.5,1.1,0.7,1.7,0.6
	C110.4,131.7,110.9,131.6,111.3,131.1z"/>
<path class="st0" d="M120.5,132.7c-0.5-0.2-0.9-0.6-1.3-0.9c-0.4-0.5-0.5-0.9-0.5-1.5v-0.4c0-0.1,0.1-0.2,0.2-0.2l0,0h0.9
	c0.1,0,0.2,0.1,0.2,0.2l0,0v0.2c0,0.5,0.2,0.9,0.7,1.3c0.5,0.4,1.2,0.5,1.8,0.5s1.1-0.1,1.5-0.5c0.4-0.2,0.6-0.7,0.5-1.2
	c0-0.2-0.1-0.6-0.2-0.8c-0.2-0.2-0.5-0.5-0.8-0.6c-0.5-0.2-0.9-0.5-1.5-0.7s-1.2-0.5-1.8-0.7c-0.4-0.2-0.8-0.5-1.1-0.9
	c-0.2-0.4-0.5-0.9-0.5-1.4c0-0.8,0.4-1.5,0.9-2c0.7-0.5,1.7-0.8,2.5-0.7c0.7,0,1.4,0.1,2,0.4c0.5,0.2,0.9,0.6,1.3,1.1
	s0.5,1.1,0.5,1.5v0.1c0,0.1,0,0.1-0.1,0.1l-0.1,0.1h-0.8c-0.1,0-0.1,0-0.1,0l-0.1-0.1v-0.1c0-0.5-0.2-0.9-0.6-1.3
	c-0.5-0.4-1.1-0.6-1.7-0.5c-0.5,0-1.1,0.1-1.4,0.4s-0.6,0.7-0.5,1.1c0,0.2,0.1,0.6,0.2,0.8c0.2,0.2,0.5,0.5,0.7,0.6
	c0.4,0.1,0.8,0.4,1.5,0.6c0.6,0.2,1.2,0.5,1.8,0.8c0.5,0.2,0.8,0.6,1.1,0.9c0.4,0.5,0.5,0.9,0.5,1.4c0,0.6-0.1,1.1-0.5,1.5
	c-0.4,0.5-0.7,0.8-1.3,0.9c-0.6,0.2-1.3,0.4-1.9,0.4C121.8,133,121.1,132.9,120.5,132.7z"/>
<path class="st0" d="M144.4,132.7l-0.5-1.7c0,0,0-0.1-0.1-0.1h-4.1c0,0-0.1,0-0.1,0.1l-0.5,1.7c0,0.1-0.1,0.2-0.2,0.2h-1.1
	c-0.1,0-0.2-0.1-0.2-0.2l3.2-10c0-0.1,0.1-0.2,0.2-0.2h1.4c0.1,0,0.2,0.1,0.2,0.2l3.3,10v0.1c0,0.1-0.1,0.1-0.2,0.1h-1.1
	C144.5,132.9,144.4,132.8,144.4,132.7z M140,129.8h3.4c0.1,0,0.1,0,0.1-0.1l-1.8-5.5V124c0,0,0,0,0,0.1L140,129.8
	C139.9,129.8,139.9,129.8,140,129.8L140,129.8z"/>
<path class="st0" d="M159.2,132.5c-0.6-0.2-0.9-0.7-1.3-1.2c-0.4-0.6-0.5-1.2-0.5-1.8v-3.9c0-0.6,0.1-1.3,0.5-1.8s0.7-0.9,1.3-1.2
	c0.6-0.2,1.3-0.5,1.9-0.5c0.7,0,1.3,0.1,1.9,0.4c0.5,0.2,0.9,0.7,1.3,1.2c0.4,0.5,0.5,1.2,0.5,1.8c0,0.1-0.1,0.1-0.2,0.2l-0.9,0.1
	h-0.1h-0.1c0,0,0,0,0-0.1v-0.1c0-0.6-0.2-1.2-0.6-1.5c-0.5-0.4-1.1-0.6-1.7-0.6c-0.6,0-1.2,0.2-1.7,0.6c-0.4,0.4-0.6,0.9-0.6,1.5v4
	c0,0.6,0.2,1.2,0.6,1.5c0.5,0.4,1.1,0.6,1.7,0.6c0.6,0,1.2-0.2,1.7-0.6c0.4-0.4,0.6-0.9,0.6-1.5c0,0,0-0.1,0.1-0.1h0.1l0.9,0.1
	c0.1,0,0.2,0,0.2,0.1v0.1c0,0.6-0.1,1.2-0.5,1.8c-0.4,0.5-0.7,0.9-1.3,1.2C162,133.1,160.5,133.1,159.2,132.5L159.2,132.5z"/>
<path class="st0" d="M176.2,132.7l-2.1-4.5c0,0,0,0-0.1-0.1h-2.1c0,0-0.1,0-0.1,0.1l0,0v4.4c0,0.1-0.1,0.2-0.2,0.2l0,0h-0.9
	c-0.1,0-0.2-0.1-0.2-0.2l0,0v-10c0-0.1,0.1-0.2,0.2-0.2l0,0h4c0.6,0,1.1,0.1,1.5,0.4c0.5,0.2,0.8,0.6,1.1,1.1
	c0.2,0.5,0.4,1.1,0.4,1.5c0,0.6-0.2,1.3-0.6,1.8c-0.4,0.5-0.9,0.8-1.5,0.9v0.1l2.1,4.4v0.1c0,0.1-0.1,0.1-0.2,0.1h-0.9
	C176.5,132.9,176.2,132.8,176.2,132.7z M171.9,123.7v3.3c0,0,0,0.1,0.1,0.1l0,0h2.5c0.5,0,0.9-0.1,1.3-0.5c0.4-0.4,0.5-0.8,0.5-1.3
	c0-0.9-0.6-1.7-1.5-1.8c-0.1,0-0.1,0-0.2,0L171.9,123.7C172,123.6,171.9,123.7,171.9,123.7L171.9,123.7L171.9,123.7z"/>
<path class="st0" d="M190.2,123.6l-0.1,0.1h-5.2c0,0-0.1,0-0.1,0.1l0,0v3.2c0,0,0,0.1,0.1,0.1l0,0h3.5c0.1,0,0.2,0.1,0.2,0.2l0,0
	v0.8c0,0.1-0.1,0.2-0.2,0.2l0,0h-3.5c0,0-0.1,0-0.1,0.1l0,0v3.3v0.1l0,0h5.2c0.1,0,0.2,0.1,0.2,0.2l0,0v0.8c0,0.1-0.1,0.2-0.2,0.2
	l0,0h-6.5c-0.1,0-0.2-0.1-0.2-0.2l0,0v-10c0-0.1,0.1-0.2,0.2-0.2l0,0h6.5c0.1,0,0.2,0.1,0.2,0.2l0,0L190.2,123.6
	C190.2,123.5,190.2,123.6,190.2,123.6z"/>
<path class="st0" d="M202,132.7l-0.5-1.7c0,0,0-0.1-0.1-0.1h-4.1c0,0-0.1,0-0.1,0.1l-0.5,1.7c0,0.1-0.1,0.2-0.2,0.2h-1.1
	c-0.1,0-0.2-0.1-0.2-0.2l3.2-10c0-0.1,0.1-0.2,0.2-0.2h1.4c0.1,0,0.2,0.1,0.2,0.2l3.3,10v0.1c0,0.1-0.1,0.1-0.2,0.1h-1.1
	C202.1,132.9,202,132.8,202,132.7z M197.5,129.8h3.4c0.1,0,0.1,0,0.1-0.1l-1.8-5.5V124c0,0,0,0,0,0.1L197.5,129.8L197.5,129.8
	L197.5,129.8z"/>
<path class="st0" d="M214.6,132.7l-2.1-4.5c0,0,0,0-0.1-0.1h-2.1c0,0-0.1,0-0.1,0.1l0,0v4.4c0,0.1-0.1,0.2-0.2,0.2l0,0h-1
	c-0.1,0-0.2-0.1-0.2-0.2l0,0v-10c0-0.1,0.1-0.2,0.2-0.2l0,0h4c0.6,0,1.1,0.1,1.5,0.4c0.5,0.2,0.8,0.6,1.1,1.1
	c0.2,0.5,0.4,1.1,0.4,1.5c0,0.6-0.2,1.3-0.6,1.8c-0.4,0.5-0.9,0.8-1.5,0.9v0.1l2.1,4.4v0.1c0,0.1-0.1,0.1-0.2,0.1h-0.9
	C214.7,132.9,214.6,132.8,214.6,132.7z M210.3,123.7v3.3c0,0,0,0.1,0.1,0.1l0,0h2.5c0.5,0,0.9-0.1,1.3-0.5c0.4-0.4,0.5-0.8,0.5-1.3
	c0-0.9-0.6-1.7-1.5-1.8c-0.1,0-0.1,0-0.2,0L210.3,123.7C210.3,123.6,210.3,123.7,210.3,123.7L210.3,123.7z"/>
</svg>
